<?xml version="1.0" standalone="no"?>
<!DOCTYPE svg PUBLIC "-//W3C//DTD SVG 20010904//EN"
 "http://www.w3.org/TR/2001/REC-SVG-20010904/DTD/svg10.dtd">
<svg version="1.0" xmlns="http://www.w3.org/2000/svg"
 width="500.000000pt" height="500.000000pt" viewBox="0 0 500.000000 500.000000"
 preserveAspectRatio="xMidYMid meet">
<metadata>
Created by potrace 1.11, written by Peter Selinger 2001-2013
</metadata>
<g transform="translate(0.000000,500.000000) scale(0.100000,-0.100000)"
fill="#000000" stroke="none">
<path d="M2262 4476 c-18 -7 -30 -15 -26 -18 3 -4 -11 -10 -32 -13 -66 -11
-178 -46 -204 -64 -14 -9 -45 -25 -70 -36 -25 -11 -63 -30 -85 -44 -22 -14
-48 -24 -57 -23 -10 0 -17 -3 -15 -8 1 -4 -2 -9 -8 -10 -5 -2 -16 -11 -23 -21
-7 -11 -19 -19 -25 -19 -7 0 -40 -24 -74 -52 -35 -29 -76 -63 -92 -75 -16 -13
-41 -44 -56 -70 -15 -27 -39 -61 -54 -76 -14 -15 -26 -36 -26 -45 0 -9 -5 -17
-12 -17 -6 0 -15 -4 -20 -9 -5 -5 -3 -6 5 -2 6 4 12 3 12 -3 0 -6 -8 -15 -19
-20 -31 -17 -90 -151 -96 -222 -10 -103 -11 -109 -50 -223 l-37 -108 1 -195
c1 -107 6 -215 12 -241 13 -55 39 -83 71 -74 21 5 22 4 8 -12 -12 -16 -12 -19
3 -27 21 -12 23 -41 2 -33 -9 4 -16 0 -16 -7 -1 -8 -3 -23 -5 -34 -21 -122
-24 -200 -14 -310 14 -149 23 -185 55 -215 26 -25 32 -21 15 9 -13 24 -23 84
-13 78 5 -3 8 8 8 23 1 16 -4 28 -10 27 -5 -1 -11 21 -13 51 -2 41 0 52 12 52
17 0 31 -42 22 -65 -3 -8 -1 -15 4 -15 6 0 10 -37 10 -87 0 -82 15 -153 32
-153 4 0 8 8 8 18 0 14 2 15 10 2 7 -11 10 -5 10 23 0 21 4 36 9 32 18 -10 23
16 12 63 -14 55 -20 122 -12 122 3 0 7 29 9 65 2 54 20 161 48 290 3 17 14 48
24 70 10 22 29 66 43 98 16 34 32 57 42 57 16 0 40 45 36 68 -1 8 2 19 7 25 5
7 10 35 10 62 1 71 94 295 122 295 5 0 26 11 46 25 34 23 239 95 270 95 8 0
14 -6 14 -13 0 -8 13 -12 38 -11 36 2 77 -20 67 -37 -3 -4 0 -11 6 -15 7 -4 9
-3 6 3 -3 5 0 10 8 10 11 0 12 -5 3 -20 -7 -14 -7 -18 1 -13 6 4 14 1 17 -7 3
-8 15 -18 27 -21 17 -5 19 -8 8 -15 -8 -5 -12 -19 -9 -35 5 -26 -5 -35 -17
-16 -3 6 -12 10 -18 10 -7 0 -6 -4 3 -10 8 -5 16 -14 16 -20 1 -5 2 -14 3 -20
0 -5 8 -10 17 -10 8 0 24 -5 35 -11 16 -8 18 -13 8 -25 -9 -11 -8 -14 5 -14 9
0 16 8 16 17 0 15 2 14 14 -3 14 -18 15 -18 21 -2 6 14 11 15 27 7 20 -11 40
-16 93 -25 17 -3 34 -10 39 -14 5 -5 18 -5 29 1 15 9 18 8 12 -2 -6 -9 -2 -11
13 -7 12 4 22 2 22 -4 0 -5 5 -6 10 -3 6 3 10 1 10 -4 0 -6 9 -11 20 -11 11 0
23 -7 27 -16 4 -11 13 -13 35 -9 16 4 35 2 42 -4 8 -7 25 -14 37 -17 31 -7 80
-16 97 -17 6 0 12 -9 12 -19 0 -10 5 -18 11 -18 5 0 8 4 5 9 -10 15 23 21 77
15 29 -3 58 -7 65 -10 35 -11 112 -15 128 -6 19 10 64 1 86 -17 15 -13 140
-93 148 -95 3 -1 4 -7 4 -13 -1 -7 4 -13 10 -13 7 0 19 -16 26 -35 8 -20 20
-41 27 -47 10 -8 10 -14 3 -24 -6 -7 -10 -18 -9 -26 3 -28 -1 -37 -17 -31 -14
5 -14 3 -3 -15 9 -14 17 -18 25 -11 8 7 11 -6 11 -50 0 -43 -4 -58 -13 -54 -6
2 -15 0 -19 -6 -3 -6 1 -11 10 -11 9 0 13 -5 10 -10 -5 -8 -11 -7 -21 1 -11 9
-18 8 -29 -1 -13 -11 -21 -7 -50 25 -33 35 -38 37 -81 32 -55 -6 -86 1 -77 17
4 6 0 6 -9 -2 -10 -8 -52 -13 -119 -14 -57 -1 -110 -6 -116 -11 -9 -6 -13 -6
-13 1 0 5 -10 8 -22 4 -13 -3 -19 -1 -15 5 7 11 -22 28 -31 18 -3 -3 1 -5 9
-5 11 0 11 -2 -1 -10 -8 -5 -39 -7 -67 -3 -46 5 -53 3 -53 -12 0 -11 -5 -15
-15 -12 -8 4 -17 1 -21 -5 -4 -7 -9 -6 -14 2 -6 10 -18 10 -51 2 -36 -9 -48
-8 -66 3 -20 13 -22 13 -17 0 4 -8 1 -15 -5 -15 -6 0 -11 4 -11 10 0 5 -10 14
-21 21 -17 8 -23 8 -29 -1 -4 -7 -13 -9 -20 -5 -9 5 -11 4 -6 -3 5 -8 -2 -12
-18 -12 -14 0 -26 5 -26 10 0 6 -5 10 -11 10 -6 0 -8 -7 -5 -16 3 -8 2 -12 -4
-9 -6 3 -10 12 -10 19 0 8 -9 12 -24 9 -13 -3 -45 5 -72 18 -27 12 -69 26 -94
30 -25 4 -56 10 -70 14 -14 4 -42 10 -62 12 -21 3 -38 10 -38 15 0 6 -9 8 -20
5 -11 -3 -27 1 -35 10 -8 8 -18 12 -23 10 -4 -3 -32 -6 -62 -8 -30 -1 -60 -6
-66 -11 -7 -5 -22 -11 -34 -13 -41 -8 -94 -28 -125 -46 -16 -11 -41 -19 -54
-19 -13 0 -21 -3 -18 -7 4 -3 1 -13 -5 -21 -10 -12 -6 -14 22 -12 19 2 42 0
50 -3 8 -3 33 -8 55 -12 29 -4 36 -3 25 4 -11 8 -5 11 27 11 23 0 44 -4 47 -9
3 -4 -7 -7 -22 -5 -15 2 -19 1 -9 -2 27 -9 20 -21 -19 -34 -48 -16 -76 -46
-81 -86 -3 -30 0 -33 29 -39 18 -4 39 -12 45 -17 7 -6 24 -7 39 -4 17 5 23 3
19 -4 -4 -7 2 -9 19 -4 17 4 26 2 26 -6 0 -6 5 -8 11 -5 6 4 19 -2 30 -14 11
-12 24 -21 28 -21 23 0 -4 -39 -30 -45 -16 -4 -29 -12 -29 -20 0 -12 29 -42
36 -38 2 1 24 -7 48 -18 35 -15 61 -19 118 -16 40 2 82 8 93 14 11 6 36 19 56
28 41 20 59 58 59 123 0 29 4 42 14 42 8 0 17 7 20 16 4 10 12 14 22 10 10 -4
23 2 34 14 9 11 20 17 24 13 3 -3 6 -2 6 3 0 15 151 14 181 -1 47 -25 63 -62
61 -140 l-2 -71 74 -68 c75 -68 152 -115 192 -116 12 0 34 -4 50 -10 34 -11
197 -32 234 -30 39 3 141 -7 167 -15 6 -2 30 3 52 12 48 19 64 14 84 -26 9
-17 11 -28 5 -25 -6 4 -9 1 -6 -6 2 -8 -4 -22 -14 -32 -10 -10 -18 -27 -18
-38 0 -11 -7 -20 -15 -20 -8 0 -16 -7 -16 -15 -3 -30 -4 -34 -16 -47 -7 -6
-13 -18 -13 -26 0 -9 -6 -12 -16 -8 -8 3 -25 -3 -36 -14 -12 -11 -30 -20 -40
-20 -13 0 -17 -4 -12 -12 5 -9 2 -9 -9 1 -15 11 -17 11 -17 -2 0 -15 -44 -31
-71 -25 -8 2 -14 -5 -14 -17 0 -11 -8 -21 -18 -23 -9 -2 -17 -8 -17 -14 0 -5
7 -8 14 -5 10 4 13 1 10 -8 -4 -10 -12 -11 -29 -5 -13 5 -26 6 -29 3 -3 -4 -6
-1 -6 6 0 8 -7 10 -19 6 -13 -4 -21 0 -25 12 -4 10 -16 29 -27 43 -11 14 -18
19 -14 13 9 -19 -3 -16 -27 7 -12 11 -27 20 -34 20 -7 0 -28 20 -47 45 -19 24
-36 42 -39 40 -2 -3 -18 13 -34 34 -35 48 -69 69 -108 67 -27 -1 -52 -26 -27
-26 18 0 41 -57 41 -104 l0 -45 -42 4 c-23 2 -45 10 -49 17 -25 44 -35 51 -57
39 -23 -12 -158 -44 -182 -42 -157 8 -230 -1 -230 -32 0 -5 -6 -15 -13 -21
-19 -15 -2 -96 19 -96 8 0 20 -11 26 -25 6 -14 18 -25 26 -25 9 0 13 -7 9 -20
-3 -13 0 -20 9 -20 8 0 17 -7 20 -15 4 -8 10 -12 15 -9 13 8 11 -10 -3 -24 -7
-7 -8 -12 -4 -12 4 0 16 10 26 23 l18 22 -3 -37 c-5 -57 -15 -78 -35 -78 -10
0 -20 -7 -24 -15 -3 -8 -13 -15 -23 -15 -15 0 -16 2 -3 10 13 8 12 10 -2 10
-10 0 -18 -4 -18 -9 0 -12 -191 -4 -204 9 -5 5 -19 10 -31 10 -12 0 -26 5 -32
11 -8 8 -23 0 -54 -28 -65 -57 -71 -63 -63 -63 4 0 -3 -11 -15 -24 -12 -13
-21 -27 -20 -32 3 -20 -2 -28 -10 -16 -6 10 -10 9 -14 -7 -3 -13 -1 -19 6 -14
6 4 8 -2 4 -16 -3 -13 -3 -21 0 -18 2 3 13 -2 23 -11 21 -17 59 -27 43 -11
-10 10 39 69 58 69 5 0 9 7 9 15 0 9 11 20 24 27 22 9 32 6 74 -21 47 -30 122
-104 122 -121 0 -4 16 -11 35 -14 19 -4 35 -11 35 -15 0 -5 10 -12 23 -16 21
-6 21 -7 -8 -20 -16 -8 -44 -14 -61 -15 -17 0 -38 -8 -45 -17 -8 -9 -9 -14 -3
-10 8 4 11 -2 10 -17 0 -13 -5 -22 -10 -18 -5 3 -7 -2 -3 -11 4 -10 2 -16 -5
-14 -6 1 -13 -4 -15 -10 -3 -7 0 -13 6 -13 6 0 27 -15 47 -34 20 -19 43 -32
50 -29 8 3 14 1 14 -5 0 -6 9 -8 20 -5 11 3 26 0 34 -6 8 -7 25 -9 42 -5 23 6
26 4 21 -10 -4 -10 -1 -16 7 -16 9 0 12 -9 8 -26 -3 -17 -7 -22 -12 -13 -5 6
-15 9 -23 6 -8 -3 -20 0 -26 6 -8 8 -11 6 -11 -7 0 -13 -5 -16 -20 -11 -21 7
-25 -1 -11 -24 14 -21 2 -41 -24 -41 -13 0 -26 -6 -28 -12 -4 -10 -8 -10 -14
-2 -4 6 -23 15 -40 19 -24 5 -33 12 -33 26 0 17 -5 19 -37 13 -29 -5 -39 -3
-50 11 -7 11 -13 15 -13 11 0 -5 -10 -2 -22 6 -32 20 -60 30 -53 18 3 -6 -1
-10 -10 -10 -8 0 -18 7 -21 15 -4 8 -11 15 -16 15 -6 0 -5 -6 2 -15 9 -11 9
-15 1 -15 -14 0 -34 48 -25 61 3 5 -1 9 -10 9 -8 0 -17 6 -20 13 -3 6 -3 2 0
-11 5 -21 3 -22 -23 -16 -37 9 -48 18 -85 75 -17 27 -34 46 -39 44 -4 -3 -17
7 -28 21 -12 15 -23 25 -26 22 -8 -8 160 -211 201 -243 162 -126 201 -148 354
-198 88 -30 105 -32 225 -31 108 1 141 5 195 24 82 28 167 49 203 50 28 0 210
60 299 99 24 10 65 32 92 50 58 36 250 211 241 219 -3 3 -14 6 -25 7 -15 1
-17 -2 -9 -17 9 -17 5 -22 -13 -19 -5 0 -8 -4 -8 -10 0 -5 -4 -7 -10 -4 -5 3
-10 1 -10 -4 0 -6 -10 -11 -22 -11 -21 0 -21 0 -2 21 19 22 19 22 -3 11 -14
-8 -23 -8 -26 -2 -3 6 -4 5 -3 -2 2 -7 -4 -19 -13 -26 -15 -12 -15 -13 0 -9
19 6 46 -9 36 -20 -5 -4 -12 -1 -17 7 -6 8 -10 10 -10 4 0 -7 -18 -10 -47 -9
-45 2 -62 -6 -63 -29 0 -6 7 -1 16 10 12 14 14 15 11 3 -3 -9 0 -22 6 -29 10
-10 8 -12 -7 -6 -14 5 -17 2 -12 -9 8 -21 -1 -19 -27 6 -19 17 -23 18 -25 5
-2 -9 -9 -16 -17 -16 -7 0 -16 -7 -19 -16 -4 -9 -9 -14 -13 -10 -4 3 -21 -6
-38 -21 -17 -16 4 7 48 49 43 43 98 102 121 131 22 30 67 88 99 130 31 41 57
78 57 82 0 4 16 48 36 98 20 50 47 142 60 204 32 159 29 153 68 146 18 -3 43
0 55 6 30 17 81 89 81 116 0 12 11 42 24 66 17 29 33 92 50 188 16 88 33 156
46 176 11 18 20 41 21 51 0 11 3 14 6 6 2 -6 8 -10 12 -7 8 5 6 -76 -4 -160
-5 -44 -4 -51 12 -51 10 0 32 -3 48 -7 43 -10 90 35 98 91 3 23 14 61 25 84
45 98 63 132 58 110 -6 -30 -1 -28 23 14 12 19 25 33 30 30 7 -5 51 104 122
304 31 86 28 239 -5 374 -26 102 -123 320 -147 328 -5 2 -12 16 -15 32 -3 16
-11 41 -19 57 -8 15 -15 55 -15 87 0 124 -92 286 -226 399 -38 32 -89 79 -114
104 -54 54 -93 83 -180 131 -36 20 -90 53 -119 74 -81 55 -151 82 -243 94 -46
5 -110 19 -142 30 -31 12 -99 25 -149 29 -51 5 -105 14 -120 20 -26 10 -376
32 -477 30 -25 -1 -60 -7 -78 -13z m1229 -303 c13 -16 12 -17 -3 -4 -10 7 -18
15 -18 17 0 8 8 3 21 -13z m-891 -43 c4 -7 15 -10 23 -7 9 3 21 -1 28 -9 10
-13 4 -14 -47 -9 -32 3 -90 9 -127 12 -72 6 -76 25 -5 21 21 -1 40 1 44 5 11
11 75 1 84 -13z m971 -37 c13 -16 12 -17 -3 -4 -17 13 -22 21 -14 21 2 0 10
-8 17 -17z m-1081 -43 c0 -5 -13 -10 -30 -10 -16 0 -30 5 -30 10 0 6 14 10 30
10 17 0 30 -4 30 -10z m100 0 c0 -7 -16 -9 -42 -5 -59 9 -60 15 -5 15 26 0 47
-5 47 -10z m1041 -7 c13 -16 12 -17 -3 -4 -17 13 -22 21 -14 21 2 0 10 -8 17
-17z m-1074 -30 c-20 -2 -52 -2 -70 0 -17 2 0 4 38 4 39 0 53 -2 32 -4z m98
-83 c3 -5 12 -7 20 -4 7 3 22 1 32 -6 14 -9 7 -10 -36 -6 -58 6 -96 26 -49 26
15 0 29 -4 33 -10z m-20 -40 c25 -11 -104 -11 -161 0 -30 6 -18 8 51 8 50 0
99 -3 110 -8z m-186 -86 c17 -4 31 -13 31 -20 0 -10 -5 -12 -17 -5 -10 5 -34
14 -53 19 -41 12 -11 16 39 6z m61 -24 c0 -5 -4 -10 -10 -10 -5 0 -10 5 -10
10 0 6 5 10 10 10 6 0 10 -4 10 -10z m86 -21 c9 -14 -42 -10 -55 4 -8 11 -5
13 19 9 17 -2 33 -8 36 -13z m-6 -89 c63 -9 62 -9 -28 -6 -52 2 -98 8 -104 14
-11 11 -4 10 132 -8z m-290 -390 c0 -11 -4 -20 -9 -20 -5 0 -7 9 -4 20 3 11 7
20 9 20 2 0 4 -9 4 -20z m1817 -312 c-3 -8 -6 -5 -6 6 -1 11 2 17 5 13 3 -3 4
-12 1 -19z m-677 -29 c0 -6 -4 -7 -10 -4 -5 3 -10 11 -10 16 0 6 5 7 10 4 6
-3 10 -11 10 -16z m667 -221 c-3 -8 -6 -5 -6 6 -1 11 2 17 5 13 3 -3 4 -12 1
-19z m-2330 -62 c0 -8 -6 -12 -14 -9 -7 3 -10 9 -7 14 8 14 21 11 21 -5z m123
-46 c12 -8 11 -10 -7 -10 -13 0 -23 5 -23 10 0 13 11 13 30 0z m2161 -17 c-12
-20 -14 -14 -5 12 4 9 9 14 11 11 3 -2 0 -13 -6 -23z m-2066 -83 c3 -5 1 -10
-4 -10 -6 0 -11 5 -11 10 0 6 2 10 4 10 3 0 8 -4 11 -10z m-31 -40 c3 -8 9
-21 12 -27 9 -19 -18 -15 -43 6 -22 19 -29 41 -17 54 9 8 42 -14 48 -33z
m1593 -337 c-3 -10 -5 -4 -5 12 0 17 2 24 5 18 2 -7 2 -21 0 -30z m-9 -48 c0
-28 -2 -29 -28 -15 -23 12 -16 40 10 40 12 0 18 -8 18 -25z m-675 -344 c25
-10 67 -82 71 -124 2 -13 7 -30 12 -38 22 -36 3 -64 -22 -33 -13 16 -15 16
-10 2 3 -9 0 -19 -7 -21 -9 -3 -9 -8 2 -20 7 -9 18 -14 25 -10 6 3 8 3 4 -2
-4 -4 3 -18 16 -30 17 -16 21 -26 14 -36 -5 -8 -11 -10 -14 -4 -3 8 -75 12
-94 5 -10 -4 -25 -7 -42 -8 -9 -1 -23 -8 -31 -16 -9 -9 -19 -11 -28 -6 -10 7
-8 11 10 18 22 8 22 9 6 16 -10 3 -23 2 -28 -3 -6 -6 -15 -4 -25 6 -14 14 -14
17 3 29 10 8 24 14 31 14 18 0 25 35 28 149 4 121 14 136 79 112z m376 -38
c-7 -7 -14 -11 -18 -8 -3 3 1 10 9 15 10 7 11 10 3 10 -7 0 -13 5 -13 11 0 8
5 8 15 -1 12 -10 13 -16 4 -27z m-839 17 c-20 -13 -57 -13 -65 0 -4 6 11 10
37 10 31 0 39 -3 28 -10z m-10 -102 c0 -19 -2 -20 -10 -8 -13 19 -13 30 0 30
6 0 10 -10 10 -22z m-161 -356 c1 11 7 15 21 11 27 -7 38 -26 13 -21 -11 2
-27 -3 -36 -10 -10 -8 -17 -9 -21 -3 -4 6 -14 7 -23 4 -11 -4 -14 -2 -11 8 3
8 10 14 16 14 5 0 14 4 18 8 5 4 12 0 15 -10 7 -15 8 -16 8 -1z m-339 -392 c0
-5 -2 -10 -4 -10 -3 0 -8 5 -11 10 -3 6 -1 10 4 10 6 0 11 -4 11 -10z"/>
<path d="M2890 1506 c0 -9 5 -16 10 -16 6 0 10 4 10 9 0 6 -4 13 -10 16 -5 3
-10 -1 -10 -9z"/>
<path d="M2864 2675 c-16 -12 -17 -14 -3 -15 9 0 19 7 23 15 7 19 5 19 -20 0z"/>
<path d="M3841 2144 c0 -11 3 -14 6 -6 3 7 2 16 -1 19 -3 4 -6 -2 -5 -13z"/>
<path d="M2696 1967 c-11 -40 -8 -51 9 -37 16 14 20 46 6 54 -5 3 -11 -4 -15
-17z"/>
<path d="M1416 1885 c-19 -14 -19 -15 7 -15 17 0 27 5 27 15 0 19 -9 19 -34 0z"/>
<path d="M3626 1222 l-19 -27 24 22 c12 12 21 24 18 27 -2 2 -13 -8 -23 -22z"/>
<path d="M1820 1195 c0 -8 4 -15 10 -15 5 0 7 7 4 15 -4 8 -8 15 -10 15 -2 0
-4 -7 -4 -15z"/>
<path d="M1865 1160 c4 -6 2 -17 -5 -25 -6 -8 -7 -16 -2 -19 6 -3 12 4 16 17
8 31 7 37 -5 37 -5 0 -7 -5 -4 -10z"/>
<path d="M1895 1150 c-4 -7 -2 -16 6 -21 18 -11 23 -4 11 17 -7 12 -11 13 -17
4z"/>
<path d="M3549 1123 l-24 -28 28 24 c25 23 32 31 24 31 -2 0 -14 -12 -28 -27z"/>
<path d="M3497 1082 c-10 -11 -14 -23 -9 -26 12 -7 35 19 30 34 -2 7 -11 3
-21 -8z"/>
<path d="M1860 1046 c0 -9 5 -16 10 -16 6 0 10 4 10 9 0 6 -4 13 -10 16 -5 3
-10 -1 -10 -9z"/>
<path d="M3265 980 c-3 -5 -2 -10 4 -10 5 0 13 5 16 10 3 6 2 10 -4 10 -5 0
-13 -4 -16 -10z"/>
<path d="M3300 979 c0 -5 5 -7 10 -4 6 3 10 8 10 11 0 2 -4 4 -10 4 -5 0 -10
-5 -10 -11z"/>
<path d="M1805 940 c3 -5 12 -7 20 -3 21 7 19 13 -6 13 -11 0 -18 -4 -14 -10z"/>
<path d="M2210 820 c0 -5 5 -10 10 -10 6 0 10 5 10 10 0 6 -4 10 -10 10 -5 0
-10 -4 -10 -10z"/>
</g>
</svg>
