<?xml version="1.0" standalone="no"?>
<!DOCTYPE svg PUBLIC "-//W3C//DTD SVG 20010904//EN"
 "http://www.w3.org/TR/2001/REC-SVG-20010904/DTD/svg10.dtd">
<svg version="1.0" xmlns="http://www.w3.org/2000/svg"
 width="410.000000pt" height="410.000000pt" viewBox="0 0 410.000000 410.000000"
 preserveAspectRatio="xMidYMid meet">
<metadata>
Created by potrace 1.11, written by Peter Selinger 2001-2013
</metadata>
<g transform="translate(0.000000,410.000000) scale(0.100000,-0.100000)"
fill="#000000" stroke="none">
<path d="M1722 3994 c-6 -3 -10 -10 -7 -15 4 -5 -1 -6 -9 -3 -9 3 -22 -1 -30
-9 -8 -8 -37 -17 -65 -20 -27 -3 -70 -15 -95 -26 -25 -12 -51 -21 -59 -21 -8
0 -25 -8 -38 -18 -21 -16 -75 -44 -89 -46 -3 -1 -12 -6 -20 -11 -35 -23 -96
-56 -112 -62 -10 -3 -18 -9 -18 -13 0 -5 -8 -11 -19 -15 -10 -3 -39 -25 -65
-48 -25 -23 -64 -55 -85 -72 -22 -16 -41 -37 -41 -45 -1 -12 -3 -12 -7 -2 -3
8 -17 -7 -35 -40 -17 -29 -38 -62 -47 -73 -9 -11 -23 -32 -31 -47 -7 -15 -20
-36 -29 -45 -9 -10 -16 -28 -15 -41 1 -13 -7 -33 -17 -45 -17 -21 -18 -21 -19
-2 0 13 -6 7 -20 -20 -11 -22 -20 -46 -19 -55 0 -8 5 -3 10 12 6 14 17 29 26
32 12 5 13 3 5 -6 -5 -7 -16 -32 -22 -55 -7 -23 -16 -40 -21 -38 -4 3 -10 -23
-14 -57 -4 -34 -25 -111 -45 -170 l-38 -109 0 -194 c-1 -114 4 -210 11 -232 6
-21 11 -41 11 -45 2 -15 27 -32 49 -33 12 0 22 -7 23 -15 0 -8 6 -28 12 -43
15 -36 15 -37 -2 -37 -14 0 -26 -49 -26 -105 0 -21 3 -26 9 -16 6 9 11 10 15
2 4 -6 11 -9 16 -6 4 3 6 -4 3 -14 -6 -24 -33 -36 -33 -16 0 27 -19 16 -22
-13 -6 -51 3 -101 17 -96 7 3 16 1 20 -5 3 -6 20 -11 36 -11 24 0 30 -4 27
-17 -2 -10 -11 -17 -20 -15 -15 2 -15 -1 0 -40 9 -24 20 -46 25 -49 10 -7 6
-79 -5 -79 -5 0 -5 -8 0 -17 5 -10 7 -24 5 -30 -3 -7 2 -19 10 -27 13 -13 15
-9 20 32 3 26 1 54 -4 64 -5 9 -9 37 -9 63 0 33 -3 44 -12 39 -6 -4 0 8 14 27
15 19 29 54 32 79 11 75 18 124 22 150 16 86 16 113 3 105 -8 -4 -4 2 9 14 23
23 30 37 11 25 -12 -7 11 38 40 76 40 54 91 149 91 168 0 12 5 24 10 27 5 3
10 16 10 29 0 33 44 158 85 241 30 60 43 76 88 103 63 38 206 85 302 101 118
18 343 20 377 4 25 -13 27 -17 16 -31 -11 -13 -10 -14 14 -9 16 4 30 3 34 -4
3 -6 15 -9 25 -6 12 3 19 0 19 -10 0 -8 -5 -11 -11 -7 -7 4 -10 1 -7 -7 3 -8
13 -13 22 -12 11 0 15 -4 12 -13 -3 -9 0 -14 7 -12 7 2 25 -7 41 -19 20 -16
27 -29 23 -44 -4 -14 -2 -19 7 -16 8 3 18 -9 26 -29 8 -19 18 -34 22 -34 5 0
7 4 3 9 -3 5 9 2 27 -7 26 -13 29 -17 15 -20 -14 -3 -9 -10 23 -33 22 -16 40
-36 40 -44 0 -8 5 -15 10 -15 6 0 10 5 10 11 0 5 4 8 9 4 5 -3 12 -1 16 4 8
14 35 2 35 -15 0 -8 6 -14 13 -14 21 0 28 12 17 25 -8 10 -3 12 20 10 17 -1
33 -5 37 -9 10 -9 25 -7 19 3 -4 5 3 7 14 4 14 -4 20 -1 18 7 -2 7 3 15 10 17
7 3 10 -1 6 -10 -6 -17 23 -50 38 -41 6 4 14 1 18 -6 5 -9 18 -5 49 14 23 15
47 24 53 20 7 -5 3 -10 -12 -16 -12 -5 -20 -11 -17 -14 10 -11 47 17 47 35 0
15 8 19 37 19 22 0 41 6 49 16 12 17 29 23 19 7 -3 -5 -1 -13 5 -16 6 -4 8
-16 4 -28 -6 -20 -6 -20 10 -4 32 32 53 38 70 21 9 -8 16 -11 16 -5 0 6 5 11
11 11 5 0 7 -4 4 -10 -10 -16 -14 -50 -6 -50 4 0 12 5 18 11 8 8 15 5 24 -12
14 -27 40 -49 51 -43 4 2 9 0 13 -5 3 -6 11 -9 18 -7 7 1 9 1 4 -1 -4 -3 -5
-9 -1 -14 3 -5 0 -8 -8 -7 -9 2 -12 -6 -9 -27 4 -42 12 -51 27 -31 8 11 14 13
19 7 3 -6 1 -11 -5 -11 -6 0 -9 -4 -6 -9 4 -5 0 -11 -6 -14 -10 -3 -8 -10 5
-24 15 -17 16 -23 5 -34 -7 -8 -15 -32 -17 -54 -1 -22 -7 -42 -11 -45 -4 -3
-6 -17 -4 -32 1 -16 -1 -28 -6 -28 -5 0 -8 -13 -8 -30 1 -17 5 -30 10 -30 5 0
2 -7 -6 -16 -18 -17 -21 -28 -6 -19 6 4 8 -13 4 -47 -7 -69 -11 -102 -13 -109
-2 -10 -51 -8 -51 2 0 5 -3 8 -7 7 -13 -4 -103 62 -103 76 0 30 -44 55 -100
55 -30 1 -62 1 -70 2 -21 2 -270 -11 -295 -15 -11 -2 -27 -6 -35 -9 -8 -4 -25
-8 -37 -10 -12 -2 -26 -6 -29 -10 -11 -11 -26 -8 -19 3 12 19 -30 -4 -48 -27
-10 -13 -25 -23 -33 -23 -8 0 -15 -4 -15 -10 -1 -5 -2 -14 -3 -19 0 -5 -4 -12
-8 -16 -3 -3 -1 -23 4 -43 6 -20 8 -54 5 -75 -5 -40 8 -87 25 -87 5 0 7 -4 4
-8 -3 -5 15 -29 39 -54 48 -51 121 -89 205 -108 30 -7 64 -16 75 -20 11 -4 36
-6 55 -5 19 1 39 0 44 -3 17 -10 86 -8 86 3 0 7 13 9 35 7 25 -3 35 0 35 10 0
8 11 14 28 15 54 2 70 7 65 20 -3 7 1 13 9 13 7 0 20 9 28 19 7 11 17 18 21
15 4 -2 11 0 14 6 4 6 3 9 -2 8 -4 -2 -8 2 -8 7 0 6 11 9 25 8 17 -2 21 0 12
6 -15 9 -15 20 -1 37 13 16 -1 25 -22 13 -15 -7 -17 -6 -13 5 7 18 35 30 43
18 7 -10 41 -12 38 -3 -3 13 25 51 34 46 5 -4 9 -2 9 4 0 5 -5 13 -10 16 -6 4
-8 15 -5 26 4 12 2 19 -7 19 -8 0 -6 4 5 11 9 5 17 17 17 24 0 8 5 15 10 15 6
0 10 -4 10 -9 0 -6 -4 -13 -10 -16 -16 -10 -12 -23 9 -30 13 -4 18 -12 14 -21
-3 -9 -1 -25 5 -37 18 -37 20 -51 10 -71 -7 -13 -7 -16 1 -12 8 5 8 0 1 -18
-5 -14 -7 -26 -4 -26 2 0 0 -10 -7 -21 -8 -16 -8 -23 1 -29 8 -5 9 -16 5 -31
-7 -21 -8 -21 -20 -5 -7 9 -16 13 -19 8 -9 -15 4 -43 17 -35 6 3 7 1 3 -6 -4
-6 -9 -23 -12 -37 -3 -14 -11 -45 -20 -70 -8 -24 -12 -49 -9 -54 3 -6 2 -10
-4 -10 -6 0 -9 -10 -8 -22 2 -36 -13 -98 -24 -98 -6 0 -7 5 -3 12 4 6 3 8 -4
4 -6 -3 -13 -20 -17 -37 -4 -18 -16 -34 -29 -39 -22 -8 -44 -28 -45 -42 -1 -5
-1 -13 -1 -19 0 -8 -4 -9 -13 0 -18 14 -27 4 -26 -28 1 -25 2 -25 9 4 l9 30
-2 -29 c-2 -21 -9 -31 -27 -38 -20 -7 -23 -7 -12 3 6 7 12 17 12 22 0 5 -7 2
-15 -7 -8 -8 -15 -21 -15 -29 0 -8 -12 -18 -26 -21 -16 -4 -24 -12 -21 -20 3
-8 0 -19 -6 -25 -8 -8 -7 -11 4 -11 8 0 20 5 25 10 7 7 11 6 11 -4 0 -8 -4
-13 -9 -10 -4 3 -8 -2 -8 -10 0 -14 -2 -14 -20 1 -16 14 -17 20 -7 32 7 9 1 7
-15 -4 -15 -11 -28 -26 -28 -32 0 -7 -10 -13 -22 -13 -17 0 -19 -3 -10 -9 11
-6 10 -10 -4 -15 -14 -5 -15 -9 -6 -15 9 -5 10 -14 3 -32 -9 -24 -10 -24 -16
9 -4 17 -11 32 -16 32 -5 0 -9 5 -9 11 0 5 4 8 8 5 5 -3 9 9 9 27 1 24 -1 27
-6 13 -5 -14 -10 -16 -15 -8 -4 7 -15 12 -25 12 -10 0 -24 7 -31 15 -7 8 -15
13 -19 11 -3 -2 -20 7 -36 21 -17 14 -24 22 -17 19 14 -8 17 10 2 19 -5 3 -7
12 -3 20 3 11 -2 15 -19 15 -13 0 -29 5 -36 12 -9 9 -12 9 -12 0 0 -7 4 -12
10 -12 5 0 7 -7 4 -15 -4 -8 -2 -15 3 -15 5 0 10 -11 11 -25 1 -14 -4 -25 -11
-25 -6 0 1 -9 18 -20 20 -13 31 -29 32 -47 2 -24 0 -26 -10 -12 -10 14 -14 14
-25 3 -7 -8 -9 -14 -4 -14 14 0 4 -90 -12 -105 -10 -10 -19 -8 -50 10 -42 26
-72 23 -98 -8 -15 -20 -20 -21 -70 -9 -29 7 -68 14 -85 16 -18 1 -41 10 -52
20 -16 14 -26 16 -54 8 -28 -8 -37 -7 -41 5 -3 8 -1 11 4 8 6 -3 10 1 10 9 0
9 -7 16 -15 16 -22 0 -19 40 3 41 10 0 12 3 5 6 -7 2 -13 9 -13 15 0 5 6 8 13
5 6 -2 20 0 29 4 14 7 16 5 13 -12 -3 -13 0 -19 8 -16 7 2 20 0 31 -5 10 -6
16 -6 13 -1 -3 4 1 16 8 26 11 15 13 16 19 2 3 -8 1 -15 -5 -15 -6 0 -3 -7 6
-16 16 -17 45 -13 45 7 0 6 7 9 14 6 11 -4 13 -1 9 10 -4 10 -2 14 5 9 6 -3
13 -2 16 3 4 5 2 12 -4 16 -6 4 -5 14 4 28 8 12 16 50 19 84 3 38 14 78 28
103 17 29 20 43 12 48 -8 5 -9 13 -3 22 14 22 12 30 -5 24 -8 -4 -15 -18 -15
-33 -1 -73 -13 -78 -98 -40 -32 15 -47 17 -62 9 -10 -5 -21 -6 -24 -1 -6 9
-111 5 -127 -4 -5 -4 -7 -10 -4 -15 7 -11 -31 -23 -45 -15 -15 9 -12 -7 5 -32
14 -20 14 -22 -7 -25 -22 -3 -21 -4 10 -23 17 -10 32 -25 32 -31 0 -7 4 -14 9
-16 5 -1 -2 -28 -15 -58 -47 -104 -54 -121 -46 -116 4 2 13 1 19 -2 22 -14 -4
-33 -48 -36 -24 -1 -62 -8 -84 -14 -43 -11 -249 -10 -302 3 -26 6 -34 4 -39
-9 -3 -9 -12 -16 -19 -16 -14 0 -75 -65 -75 -80 0 -16 17 -12 81 20 l60 31 28
-20 c15 -11 45 -20 67 -21 45 0 59 -2 134 -19 30 -6 60 -15 65 -19 25 -18 35
-42 29 -66 -5 -21 -11 -25 -28 -21 -17 5 -18 4 -6 -4 13 -9 12 -11 -4 -11 -20
0 -20 0 0 -14 11 -8 21 -10 25 -5 3 5 17 -1 32 -15 14 -13 28 -21 31 -18 3 3
6 1 6 -4 0 -9 -14 -18 -79 -49 -18 -9 -44 -27 -57 -40 l-24 -24 38 -12 c20 -6
40 -16 43 -22 6 -8 40 -14 90 -16 9 -1 22 -12 29 -26 10 -19 16 -22 27 -14 10
9 13 8 13 -5 0 -15 8 -17 48 -13 31 3 46 9 44 17 -2 9 6 7 24 -5 14 -9 24 -12
20 -7 -3 6 7 17 24 25 23 12 33 13 43 4 10 -10 38 -14 72 -8 6 1 3 6 -5 11
-12 8 -9 9 12 8 15 -1 25 -5 22 -9 -2 -4 0 -10 6 -14 19 -12 -1 -25 -29 -20
-33 6 -71 -25 -71 -57 0 -16 -5 -19 -25 -16 -15 3 -22 1 -18 -5 4 -6 -5 -8
-26 -4 -24 5 -33 3 -38 -9 -3 -9 -16 -15 -32 -14 -48 4 -61 0 -61 -16 0 -14
-2 -15 -17 -3 -9 8 -19 13 -22 11 -3 -2 -21 -12 -38 -24 -30 -18 -38 -17 -34
5 1 5 -3 6 -8 2 -6 -3 -8 -12 -4 -20 6 -18 -7 -21 -64 -12 -18 3 -36 0 -39 -5
-5 -7 -2 -8 6 -3 9 6 11 4 5 -4 -5 -8 -18 -11 -37 -7 -24 5 -29 3 -24 -9 7
-19 -34 -30 -72 -19 -15 4 -30 8 -34 8 -4 1 -17 9 -28 19 -12 10 -31 17 -43
15 -29 -5 50 -46 182 -96 93 -35 100 -36 226 -36 120 1 138 4 240 37 258 83
295 103 440 236 115 106 287 320 316 393 46 117 71 198 90 288 11 52 22 107
25 122 6 24 9 26 31 17 14 -5 35 -7 47 -3 37 11 86 66 97 109 5 22 21 63 34
90 15 31 32 100 45 180 12 71 29 145 39 165 10 19 24 47 31 63 8 15 19 27 26
27 8 0 16 11 20 24 3 14 12 27 20 30 10 4 13 1 9 -7 -3 -6 2 -1 12 12 10 13
35 74 57 135 21 61 49 142 62 180 34 99 34 244 -2 387 -26 104 -119 311 -150
336 -9 6 -18 26 -21 45 -2 18 -11 47 -18 63 -8 17 -14 57 -14 90 0 122 -103
298 -240 409 -36 29 -93 80 -127 112 -33 33 -110 88 -170 123 -60 36 -126 77
-148 93 -55 40 -131 65 -233 78 -48 7 -110 18 -138 26 -27 8 -106 17 -175 19
-69 2 -174 6 -235 9 -60 3 -116 3 -123 0z m-98 -84 c-22 -9 -29 -6 -20 9 4 6
14 7 23 4 15 -6 14 -7 -3 -13z m129 3 c-7 -2 -19 -2 -25 0 -7 3 -2 5 12 5 14
0 19 -2 13 -5z m37 3 c0 -3 -4 -8 -10 -11 -5 -3 -10 -1 -10 4 0 6 5 11 10 11
6 0 10 -2 10 -4z m-221 -27 c-16 -10 -23 -4 -14 10 3 6 11 8 17 5 6 -4 5 -9
-3 -15z m197 -2 c4 -4 16 -7 28 -7 35 0 4 -17 -54 -29 -30 -7 -65 -14 -78 -18
-16 -4 -22 -1 -20 8 2 9 -5 13 -17 12 -20 -1 -20 -1 -1 13 15 10 16 14 5 15
-21 3 61 14 98 14 17 0 35 -4 39 -8z m157 -14 c-7 -2 -19 -2 -25 0 -7 3 -2 5
12 5 14 0 19 -2 13 -5z m-60 -20 c-7 -2 -19 -2 -25 0 -7 3 -2 5 12 5 14 0 19
-2 13 -5z m110 -10 c-7 -2 -21 -2 -30 0 -10 3 -4 5 12 5 17 0 24 -2 18 -5z
m-208 -42 c-19 -8 -18 -9 5 -13 25 -5 25 -5 -2 -7 -27 -1 -35 8 -21 22 3 4 13
7 22 6 12 0 10 -3 -4 -8z m-30 -31 c3 -5 2 -10 -4 -10 -5 0 -13 5 -16 10 -3 6
-2 10 4 10 5 0 13 -4 16 -10z m180 -10 c-17 -7 -15 -9 13 -9 17 -1 32 4 32 9
0 6 15 10 34 10 19 0 38 -4 41 -10 4 -6 -8 -10 -29 -10 -42 0 -68 -9 -60 -21
3 -5 0 -9 -6 -9 -6 0 -8 -5 -4 -12 4 -7 3 -8 -4 -4 -7 4 -12 15 -13 24 0 13
-3 12 -11 -4 -11 -24 -52 -34 -128 -33 -52 1 -46 4 25 15 47 7 48 8 20 15
l-30 7 35 2 c19 1 41 1 49 0 9 -1 12 5 8 19 -4 18 -1 21 21 20 24 0 25 -1 7
-9z m-68 -6 c-3 -3 -12 -4 -19 -1 -8 3 -5 6 6 6 11 1 17 -2 13 -5z m-99 -31
c-10 -2 -26 -2 -35 0 -10 3 -2 5 17 5 19 0 27 -2 18 -5z m401 -90 c13 -12 28
-20 33 -17 4 3 8 0 8 -6 0 -7 -10 -9 -27 -6 -16 3 -85 7 -155 8 -71 2 -128 7
-128 11 0 5 -6 5 -12 0 -20 -12 -32 -11 -46 3 -10 11 -5 14 26 19 20 4 42 8
47 10 6 3 60 3 120 2 99 -2 113 -4 134 -24z m-396 -10 c-7 -2 -19 -2 -25 0 -7
3 -2 5 12 5 14 0 19 -2 13 -5z m201 -35 c-3 -4 -1 -8 5 -8 5 0 12 6 14 13 3 7
6 5 6 -5 1 -17 31 -24 90 -20 8 0 24 -6 35 -15 20 -14 19 -15 -14 -9 -19 3
-95 6 -167 7 -82 1 -133 5 -133 11 0 6 -6 8 -13 5 -8 -3 -20 -1 -28 5 -10 7 0
8 30 3 38 -5 42 -4 32 9 -10 12 -1 14 68 14 44 -1 78 -5 75 -10z m63 -4 c-3
-3 -12 -4 -19 -1 -8 3 -5 6 6 6 11 1 17 -2 13 -5z m-297 -14 c0 -5 -8 -10 -17
-10 -15 0 -16 2 -3 10 19 12 20 12 20 0z m329 -46 c2 -2 -50 -4 -117 -4 -68 0
-122 4 -122 9 0 9 230 5 239 -5z m-173 -35 c3 -6 15 -8 26 -6 11 3 17 3 13 -1
-4 -4 35 -12 87 -19 91 -11 233 -38 253 -48 20 -10 -192 3 -235 15 -107 28
-126 34 -140 45 -8 7 -22 15 -30 18 -12 4 -12 6 2 6 9 1 20 -4 24 -10z m-108
-16 c-10 -2 -26 -2 -35 0 -10 3 -2 5 17 5 19 0 27 -2 18 -5z m427 -2 c40 -9
40 -9 -15 -9 -30 0 -66 4 -80 8 -22 7 -19 8 15 8 22 1 58 -3 80 -7z m-104 -66
c5 -4 40 -13 77 -20 l67 -15 -60 5 c-241 19 -255 19 -270 -1 -8 -10 -15 -14
-15 -8 0 6 -16 11 -35 12 -47 2 -59 10 -44 29 11 12 35 14 141 9 71 -3 133 -8
139 -11z m234 -5 c4 -7 -3 -8 -22 -4 -38 9 -42 14 -10 14 14 0 29 -5 32 -10z
m-630 -39 c-3 -6 3 -10 12 -10 10 0 32 -2 48 -4 17 -2 67 -8 113 -12 45 -4 80
-10 77 -13 -7 -7 32 -25 103 -46 34 -11 62 -22 62 -27 0 -12 -33 -20 -40 -9
-7 11 -75 24 -185 36 -60 7 -65 9 -35 14 l35 6 -49 7 c-27 4 -64 7 -82 7 -18
0 -34 4 -36 10 -1 5 -15 11 -29 12 -17 1 -25 7 -22 15 3 9 0 11 -10 7 -8 -3
-17 -2 -20 3 -3 4 11 9 30 11 19 1 32 -2 28 -7z m338 -38 c-13 -2 -33 -2 -45
0 -13 2 -3 4 22 4 25 0 35 -2 23 -4z m146 -14 c36 -6 70 -15 76 -20 12 -12 0
-11 -66 2 -30 6 -72 15 -94 19 -68 13 8 12 84 -1z m-382 -105 c-3 -3 -12 -4
-19 -1 -8 3 -5 6 6 6 11 1 17 -2 13 -5z m203 -15 c104 -13 139 -29 60 -28 -68
1 -232 28 -226 38 5 8 34 6 166 -10z m-350 -29 c0 -5 -4 -10 -9 -10 -6 0 -13
5 -16 10 -3 6 1 10 9 10 9 0 16 -4 16 -10z m73 -7 c-7 -2 -21 -2 -30 0 -10 3
-4 5 12 5 17 0 24 -2 18 -5z m170 0 c-7 -2 -19 -2 -25 0 -7 3 -2 5 12 5 14 0
19 -2 13 -5z m47 -85 c12 -8 11 -8 -3 -4 -10 3 -30 6 -43 6 -13 0 -24 5 -24
10 0 11 45 3 70 -12z m695 -306 c-3 -3 -11 0 -18 7 -9 10 -8 11 6 5 10 -3 15
-9 12 -12z m47 -24 c-8 -8 -9 -4 -5 13 4 13 8 18 11 10 2 -7 -1 -18 -6 -23z
m-442 -19 c0 -5 -7 -9 -15 -9 -15 0 -20 12 -9 23 8 8 24 -1 24 -14z m-1370
-570 c-7 -11 -14 -18 -17 -15 -3 3 0 12 7 21 18 21 23 19 10 -6z m-129 -142
c-8 -8 -11 -7 -11 4 0 20 13 34 18 19 3 -7 -1 -17 -7 -23z m62 -7 c-10 -11
-19 -20 -21 -20 -1 0 2 9 8 20 6 11 15 20 20 20 6 0 2 -9 -7 -20z m2367 -630
c0 -5 -2 -10 -4 -10 -3 0 -8 5 -11 10 -3 6 -1 10 4 10 6 0 11 -4 11 -10z
m-1206 -235 c-4 -9 0 -15 7 -15 11 0 11 -2 -1 -10 -11 -7 -17 -5 -21 8 -7 19
-3 32 11 32 5 0 7 -7 4 -15z m24 -57 c-20 -29 -33 -33 -35 -9 -1 17 10 26 41
30 5 0 2 -9 -6 -21z m787 12 c3 -5 1 -10 -4 -10 -6 0 -11 5 -11 10 0 6 2 10 4
10 3 0 8 -4 11 -10z m42 -12 c-3 -8 -6 -5 -6 6 -1 11 2 17 5 13 3 -3 4 -12 1
-19z m-871 -52 c12 -13 12 -17 -6 -29 -11 -7 -18 -16 -16 -18 2 -2 -3 -10 -12
-18 -14 -13 -15 -11 -9 18 4 19 7 40 7 47 0 18 18 18 36 0z m787 -14 c-2 -10
-13 -18 -24 -18 -32 0 -21 14 28 35 0 1 -1 -7 -4 -17z m42 -22 c3 -5 2 -10 -4
-10 -5 0 -13 5 -16 10 -3 6 -2 10 4 10 5 0 13 -4 16 -10z m-12 -57 c-3 -7 -10
-13 -16 -13 -8 0 -8 3 0 11 6 6 9 19 6 28 -4 13 -3 13 5 2 6 -8 8 -20 5 -28z
m-225 -15 c14 -2 16 -24 2 -33 -5 -3 -10 -2 -10 4 0 6 -7 8 -15 5 -9 -4 -15 0
-15 9 0 8 -6 18 -12 21 -7 4 -2 4 12 0 14 -3 31 -6 38 -6z m167 2 c3 -5 1 -10
-4 -10 -6 0 -11 5 -11 10 0 6 2 10 4 10 3 0 8 -4 11 -10z m-20 -28 c-3 -3 -11
0 -18 7 -9 10 -8 11 6 5 10 -3 15 -9 12 -12z m-958 -18 c-3 -3 -12 -4 -19 -1
-8 3 -5 6 6 6 11 1 17 -2 13 -5z m723 -14 c0 -5 -4 -10 -9 -10 -6 0 -13 5 -16
10 -3 6 1 10 9 10 9 0 16 -4 16 -10z m190 -60 c0 -5 -4 -10 -10 -10 -5 0 -10
5 -10 10 0 6 5 10 10 10 6 0 10 -4 10 -10z m-85 -40 c3 -5 1 -10 -4 -10 -6 0
-11 5 -11 10 0 6 2 10 4 10 3 0 8 -4 11 -10z m-255 -50 c6 -11 15 -18 21 -15
5 4 9 -1 9 -9 0 -8 -4 -18 -10 -21 -17 -11 -11 -37 10 -42 19 -5 19 -6 -5 -25
-18 -14 -23 -26 -19 -43 3 -12 1 -26 -4 -29 -12 -7 -44 3 -38 13 2 3 -2 12
-10 18 -8 8 -15 9 -19 3 -3 -6 -2 -10 4 -10 10 0 -15 -56 -29 -65 -5 -3 -15 3
-22 15 -7 11 -23 20 -35 20 -26 0 -39 16 -24 33 5 7 7 17 3 23 -8 13 -42 14
-42 2 0 -10 -21 -10 -37 0 -6 4 -15 20 -18 35 -6 23 -4 27 14 27 12 0 29 8 39
18 48 46 66 56 105 63 77 12 96 10 107 -11z m59 -56 c-24 -25 -46 -33 -32 -11
7 12 9 17 12 36 0 5 10 7 22 4 20 -6 20 -6 -2 -29z m-9 -64 c0 -5 -2 -10 -4
-10 -3 0 -8 5 -11 10 -3 6 -1 10 4 10 6 0 11 -4 11 -10z m-172 -106 c8 -8 9
-15 2 -19 -13 -8 -27 1 -40 25 -9 17 -8 19 7 13 10 -4 24 -12 31 -19z m107 16
c3 -5 1 -10 -4 -10 -6 0 -11 5 -11 10 0 6 2 10 4 10 3 0 8 -4 11 -10z m-159
-48 c-4 -3 -14 2 -24 12 -16 18 -16 18 6 6 13 -6 21 -14 18 -18z m170 -13 c-1
-24 -7 -33 -22 -35 -19 -3 -26 4 -52 59 -2 4 4 7 13 7 9 0 13 -4 10 -10 -3 -5
0 -10 8 -10 8 0 18 7 21 16 9 25 24 7 22 -27z"/>
<path d="M1698 3863 c6 -2 18 -2 25 0 6 3 1 5 -13 5 -14 0 -19 -2 -12 -5z"/>
<path d="M1835 3400 c3 -5 14 -10 23 -10 15 0 15 2 2 10 -20 13 -33 13 -25 0z"/>
<path d="M2270 661 c0 -6 5 -13 10 -16 6 -3 10 1 10 9 0 9 -4 16 -10 16 -5 0
-10 -4 -10 -9z"/>
<path d="M2203 545 c-6 -6 -8 -18 -3 -24 5 -9 9 -5 13 10 7 28 6 31 -10 14z"/>
<path d="M2245 430 c3 -5 8 -10 11 -10 2 0 4 5 4 10 0 6 -5 10 -11 10 -5 0 -7
-4 -4 -10z"/>
<path d="M1790 2990 c0 -6 7 -10 15 -10 8 0 15 2 15 4 0 2 -7 6 -15 10 -8 3
-15 1 -15 -4z"/>
<path d="M2700 2660 c-13 -8 -12 -10 3 -10 9 0 17 5 17 10 0 12 -1 12 -20 0z"/>
<path d="M1357 2243 c-4 -3 -21 -6 -39 -6 -18 0 -25 -2 -15 -4 9 -3 17 -8 17
-13 0 -5 10 -11 23 -13 12 -2 4 -2 -18 0 -22 2 -44 8 -48 12 -13 13 -97 -9
-145 -37 -29 -17 -40 -27 -31 -32 17 -11 39 -1 39 17 0 17 32 15 150 -7 30 -6
73 -12 95 -14 52 -5 135 -27 135 -36 0 -4 -48 -10 -107 -14 -117 -8 -206 -35
-223 -67 -8 -13 -7 -19 0 -19 6 0 10 -8 8 -17 -2 -13 5 -18 32 -20 19 -2 37
-8 38 -13 2 -6 7 -8 12 -5 5 3 30 -6 56 -20 26 -14 52 -25 57 -25 6 0 19 -8
30 -17 11 -10 17 -12 13 -5 -4 7 8 4 27 -7 19 -11 38 -17 41 -14 3 4 6 2 6 -4
0 -15 -34 -43 -53 -43 -25 0 -21 -15 8 -30 23 -12 103 -16 145 -7 34 8 86 36
105 57 16 18 20 36 20 100 0 43 -3 76 -7 73 -5 -2 -8 3 -8 11 0 9 -3 16 -7 16
-5 0 -19 9 -33 20 l-25 20 28 -2 c15 -1 27 -6 27 -11 0 -5 7 -6 16 -3 9 4 29
-1 43 -10 14 -9 23 -13 19 -9 -4 4 0 13 8 20 37 26 -20 71 -157 125 -44 18
-118 34 -196 44 -13 1 -26 6 -30 9 -8 9 -48 9 -56 0z m39 -245 c6 -18 14 -41
19 -50 10 -26 -4 -22 -60 13 l-48 31 29 19 c40 26 47 24 60 -13z m34 22 c0 -5
-4 -10 -10 -10 -5 0 -10 5 -10 10 0 6 5 10 10 10 6 0 10 -4 10 -10z"/>
<path d="M716 1797 c3 -10 9 -15 12 -12 3 3 0 11 -7 18 -10 9 -11 8 -5 -6z"/>
<path d="M2274 1349 c-8 -13 25 -24 37 -12 7 7 3 12 -10 16 -12 3 -24 1 -27
-4z"/>
<path d="M2310 1323 c0 -5 4 -15 10 -23 11 -18 25 -7 17 15 -6 15 -27 21 -27
8z"/>
<path d="M1694 1283 c-4 -16 -11 -33 -16 -39 -15 -20 3 -46 29 -41 13 2 26 0
29 -4 3 -5 9 -9 15 -9 14 0 11 28 -3 33 -24 8 10 35 37 29 35 -6 31 13 -9 37
-47 30 -74 27 -82 -6z"/>
<path d="M2345 1280 c-10 -16 12 -29 39 -22 20 6 20 6 1 10 -11 2 -23 9 -26
14 -4 6 -9 6 -14 -2z"/>
<path d="M1770 1140 c0 -5 5 -10 11 -10 5 0 7 5 4 10 -3 6 -8 10 -11 10 -2 0
-4 -4 -4 -10z"/>
<path d="M2651 1090 c-9 -5 -10 -10 -2 -14 6 -4 11 -3 11 3 0 6 7 8 15 5 8 -4
15 -4 15 -1 0 10 -27 15 -39 7z"/>
<path d="M2650 1051 c0 -5 7 -11 14 -14 10 -4 13 -1 9 9 -6 15 -23 19 -23 5z"/>
<path d="M1678 695 c13 -9 26 -14 29 -11 8 8 3 12 -27 21 l-25 7 23 -17z"/>
<path d="M1893 365 c1 -11 -2 -26 -6 -32 -10 -15 2 -17 23 -3 10 7 12 12 4 18
-6 4 -14 14 -17 22 -5 10 -6 9 -4 -5z"/>
</g>
</svg>
