<?xml version="1.0" encoding="UTF-8" standalone="no"?>
<svg width="749px" height="208px" viewBox="0 0 749 208" version="1.1" xmlns="http://www.w3.org/2000/svg" xmlns:xlink="http://www.w3.org/1999/xlink" xmlns:sketch="http://www.bohemiancoding.com/sketch/ns">
    <!-- Generator: Sketch 3.5.1 (25234) - http://www.bohemiancoding.com/sketch -->
    <title>Slice 1</title>
    <desc>Created with Sketch.</desc>
    <defs>
        <path id="path-1" d="M96,5 L1,39 L5,46 L110,5 L107,4 L96,5 Z"></path>
    </defs>
    <g id="Page-1" stroke="none" stroke-width="1" fill="none" fill-rule="evenodd" sketch:type="MSPage">
        <g id="Windows" sketch:type="MSLayerGroup" transform="translate(262.000000, 32.000000)">
            <g id="Path-10">
                <use stroke="#253941" stroke-width="1" fill-opacity="0.55" fill="#9DDBF1" fill-rule="evenodd" sketch:type="MSShapeGroup" xlink:href="#path-1"></use>
                <use stroke="none" fill="none" xlink:href="#path-1"></use>
            </g>
            <g id="Side" transform="translate(51.000000, 0.000000)" sketch:type="MSShapeGroup">
                <path d="M15,42 C15,42 62,23 73,22 C84,21 174,21 176,22 C178,23 180,38 180,38 C180,38 179,10 179,9 C179,7.99999999 178,4 172,4 C166,4 80,4 75,5 C70,6 4,30 4,30 L1,44 L15,42 Z" id="Path-14" stroke="#253941" stroke-width="3" fill="#ADAAAA"></path>
                <g id="Interior" transform="translate(101.000000, 8.000000)">
                    <rect id="Rectangle-6" fill="#293033" x="0" y="0" width="30" height="14"></rect>
                    <rect id="Rectangle-7" fill="#7691F8" x="2" y="2" width="5" height="5"></rect>
                    <rect id="Rectangle-7" fill="#EB1E58" x="9" y="2" width="5" height="5"></rect>
                    <rect id="Rectangle-7" fill="#63BD77" x="2" y="9" width="5" height="5"></rect>
                    <rect id="Rectangle-7" fill="#C3E9F6" x="9" y="9" width="5" height="5"></rect>
                    <rect id="Rectangle-7" fill="#63BD77" x="16" y="2" width="5" height="5"></rect>
                    <rect id="Rectangle-7" fill="#7691F7" x="16" y="9" width="5" height="5"></rect>
                    <rect id="Rectangle-7" fill="#EA1E58" x="23" y="2" width="5" height="5"></rect>
                    <rect id="Rectangle-7" fill="#C3E9F6" x="23" y="9" width="5" height="5"></rect>
                </g>
                <path d="M120,42 L184,42 L183,8 L176,0 L70,1 L1,28 L0,44 L120,42 Z" id="Path-13" fill-opacity="0.550000012" fill="#9DDBF1"></path>
                <path d="M46,41 C46,41 90,21 96,20 C102,19 140,18 144,20 C148,22 163,41 163,41 L157,41 C157,41 143,23.0000005 141,23.0000002 C139,23 102,21.9999998 98,23 C94,24.0000002 51,42 51,42 L46,41 Z" id="Path-12" stroke="#253941" fill="#4D5E64"></path>
            </g>
            <path d="M6,45 L14,42.0000001 C14,42.0000001 9.7353335,37.5861429 7,37 C5.06866684,36.5861429 0,38 0,38" id="Path-347" stroke="#253941" fill="#2B3F47" sketch:type="MSShapeGroup"></path>
        </g>
        <g id="Back" sketch:type="MSLayerGroup" transform="translate(507.000000, 16.000000)" stroke="#253941">
            <path d="M212,22 L225,22 L225,25 L214,29 L212,22 Z" id="Path-36" fill="#B0B8C7" sketch:type="MSShapeGroup"></path>
            <path d="M216,35 L229,35 L229,38 L218,42 L216,35 Z" id="Path-36" fill="#B0B8C7" sketch:type="MSShapeGroup"></path>
            <path d="M220,48 L233,48 L233,51 L222,55 L220,48 Z" id="Path-36" fill="#B0B8C7" sketch:type="MSShapeGroup"></path>
            <path d="M91,44 C91,44 99,29 107,29 L123,29 L123,34 L109,34 C102,34 97,44 97,44 L91,44 Z" id="Rectangle-27" fill="#6A6E75" sketch:type="MSShapeGroup"></path>
            <path d="M33,43 C33,43 64.4738347,44.5893422 96,43 C113.432511,42.1211673 139.125333,41.4373333 140,41 C160.210192,30.8949038 208,6 208,6 C208,6 228,53 229,62 C230,71 232,85 232,85 L226,87 L213,67 L33,64 L33,43 Z" id="Path-35" fill="#2B3F47" sketch:type="MSShapeGroup"></path>
            <g id="&quot;gun&quot;" transform="translate(0.000000, 1.000000)" sketch:type="MSShapeGroup">
                <path d="M0,3.0093689 C0,2.45190985 0.453036308,1.94337046 0.997030139,1.87537123 L7.00296986,1.12462877 C7.5536144,1.0557982 8,1.45097519 8,1.99077799 L8,6.00922214 C8,6.55641372 7.54696369,6.94337059 7.00296986,6.87537135 L0.997030139,6.12462878 C0.446385598,6.05579821 0,5.55664682 0,4.9906311 L0,3.0093689 Z" id="Rectangle-22" fill="#D9D9D9"></path>
                <rect id="Rectangle-24" fill="#6A6E75" x="12" y="7" width="5" height="8"></rect>
                <rect id="Rectangle-22" fill="#D9D9D9" x="4" y="0" width="23" height="8" rx="2"></rect>
                <g id="Cords" transform="translate(25.000000, 1.000000)" fill="#6A6E75">
                    <path d="M1,1 C1,1 -0.00449359296,0.789470673 10,0.789470673 C14.7920804,0.789470673 21,4.97428284 21,12 C21,16.7894707 20.8339187,24.3554928 10.9732723,27 C-3.13488031,30.7836375 1,28 1,28 L9.47352241e-09,25 C9.47352241e-09,25 -0.113271358,26.7461028 10.1933578,23.9211324 C18.0501903,21.7676331 17,14.0717454 17,12 C17,7.21052933 13.8605977,3.78947067 10,3.78947067 C-0.228458194,3.78947067 1,4 1,4 L1,1 Z" id="Rectangle-25"></path>
                    <path d="M1,3 C1,3 -0.00449359296,2.78947067 10,2.78947067 C14.7920804,2.78947067 21,6.97428284 21,14 C21,18.7894707 20.8339187,26.3554928 10.9732723,29 C-3.13488031,32.7836375 1,30 1,30 L9.47340872e-09,27 C9.47340872e-09,27 -0.113271358,28.7461028 10.1933578,25.9211324 C18.0501903,23.7676331 17,16.0717454 17,14 C17,9.21052933 13.8605977,5.78947067 10,5.78947067 C-0.228458194,5.78947067 1,6 1,6 L1,3 Z" id="Rectangle-25"></path>
                </g>
            </g>
            <g id="Red-alternator" transform="translate(50.000000, 42.000000)" fill="#CC6262" sketch:type="MSShapeGroup">
                <path d="M0,14.9230769 L6.66133815e-16,2 L9,2 L9,16 L0,14.9230769 Z" id="Path-330"></path>
                <ellipse id="Oval-8" cx="4.5" cy="1.5" rx="4.5" ry="1.5"></ellipse>
            </g>
            <g id="Red-alternator" transform="translate(63.000000, 42.000000)" fill="#CC6262" sketch:type="MSShapeGroup">
                <path d="M0,14.9230769 L6.66133815e-16,2 L9,2 L9,16 L0,14.9230769 Z" id="Path-330"></path>
                <ellipse id="Oval-8" cx="4.5" cy="1.5" rx="4.5" ry="1.5"></ellipse>
            </g>
            <g id="Red-alternator" transform="translate(76.000000, 42.000000)" fill="#CC6262" sketch:type="MSShapeGroup">
                <path d="M0,14.9230769 L6.66133815e-16,2 L9,2 L9,16 L0,14.9230769 Z" id="Path-330"></path>
                <ellipse id="Oval-8" cx="4.5" cy="1.5" rx="4.5" ry="1.5"></ellipse>
            </g>
            <g id="Group-2" transform="translate(122.000000, 0.000000)" sketch:type="MSShapeGroup">
                <path d="M4,23 C4,21.6514741 4,1.96738572 4,1 C4,-6.2200245e-14 24,-2.42032954e-08 24,0.999999976 L24,23 L4,23 Z" id="Path-44" fill="#B0B8C7"></path>
                <path d="M24,2 C24,2 15,7 15,15 C15,23 24,15 24,15 L24,2 Z" id="Path-45" fill="#2B3F47"></path>
                <path d="M2,29 L4,23 L24,23 L26,30 L2,29 Z" id="Path-43" fill="#B0B8C7"></path>
                <path d="M1,39 L1,29.7804555 C1,29.7804555 0.887913413,28.3364989 2.44395671,28.3364988 C4,28.3364988 25.0025099,28.3364988 25.0025099,28.3364988 C25.0025099,28.3364988 26.9999997,27.9999999 27,30 C27.0000003,32.0000001 27,45.0332964 27,45.0332964 L1,39 Z" id="Path-39" fill="#2B3F47"></path>
                <path d="M7,28 L7,38" id="Path-40"></path>
                <path d="M14,28 L14,38" id="Path-40"></path>
                <path d="M21,28 L21,41.5092564" id="Path-40"></path>
            </g>
            <path d="M99,35 L164,35 L191,26 L191,24 L195,24 L195,28 L164,38 L108,38 L99,35 Z" id="Path-46" fill="#D9D9D9" sketch:type="MSShapeGroup"></path>
        </g>
        <g id="Body" sketch:type="MSLayerGroup" transform="translate(24.000000, 29.000000)">
            <path d="M505,145 L626,142 L631,151 L648,152 L648,102 L615,76 L564,66 L540,74 L512,97 L505,145 Z" id="Path-67" stroke="#253941" fill="#1E2D34" sketch:type="MSShapeGroup"></path>
            <path d="M66,145 L187,142 L192,151 L209,152 L209,102 L176,76 L125,66 L101,74 L73,97 L66,145 Z" id="Path-67" stroke="#253941" fill="#1E2D34" sketch:type="MSShapeGroup"></path>
            <g id="Rear" transform="translate(512.000000, 7.000000)" sketch:type="MSShapeGroup">
                <path d="M8.38161754,0.0404077986 C11.1371926,0.117754305 15.7157674,0.343153472 19,1 C23.6014591,1.92029182 133.223111,21.4731985 152.228219,26.1432631 C151.220219,26.6012536 151.508856,28 149,28 C146,28 10,3 9,2 C8.50897983,1.50897983 8.50016127,0.776858861 8.38161754,0.0404077986 Z" id="Mask" fill="#253941"></path>
                <path d="M101,43 L153,42 C153,42 162,33 142,29 C122,25 0,4 0,4 L11,42 L101,43 Z" id="Path-13" fill-opacity="0.550000012" fill="#9DDBF1"></path>
                <path d="M117,24 C117,24 132,27 133,40 C134,53 149,43 149,43 L157,38 L153,30 L117,24 Z" id="Path-32" stroke="#253941" fill="#364850"></path>
            </g>
            <g id="Footstep" transform="translate(199.000000, 114.000000)" stroke="#253941" sketch:type="MSShapeGroup">
                <path d="M6,38 L309,38" id="Path-16"></path>
                <path d="M0,19 C0,19 2,42 15,47 C20,49 24,49 24,49 C24,49 285,49 292,49 C299,49 312,45 312,22 C312,-1 294,1 294,1 L2,4 L0,19 Z" id="Path-15" fill="#2B3F47"></path>
            </g>
            <path d="M10,66 C26.0000033,62.9999998 236,39 239,41 C242,43 243,45.9999998 244,47 C245,48.0000002 341,8.99999888 340,9 C339,9.00000112 333,9 334,8 C335,7 347,2 363,1 C379,2.13440376e-14 480,-2.13162821e-14 481,1 C482,2 505,-3.33066907e-16 519,5 C521,6 520,8 521,9 C522,10 658,35 661,35 C664,35 663,33 665,33 C667,33 682,38 693,43 C704,48 703,50 703,53 C703,56 706,68 708,71 C710,74 714,82 719,85 C724,88 718,118 713,123 C708,128 642,156 640,156 C638,156 642,110 627,94 C612,78 601,72 578,72 C555,72 531,83 521,103 C511,123 511,134 511,134 L199,134 C199,134 198,106 188,94 C178,82 162,71 139,72 C116,73 97,79 85,100 C73,121 69,143 69,143 L22,144 L21,130 L1.49213975e-13,114 L2,69 C2,69 1,68 10,66 Z M465,6 C468,6 469,18 469,22 L469,39 C469,40 467,42 465,43 C463,44 295,44 295,44 L295,30.8470536 C295,30.8470536 353,8 363,7 C373,6 462,6 465,6 Z M518,14 C521,14.0000016 657,37 659,38 C661,39 664.000007,43 663,45 C661.999993,47 534,44 530,43 C526,42 521,40.1636152 520,35 C519,29.8363848 515,13.9999984 518,14 Z" stroke="#253941" fill="#DADADA" sketch:type="MSShapeGroup"></path>
            <path d="M244,47 C244,47 249,56 250,60 C251,64 256,82 257,83 C258,84 259,84 259,88 C259,92 259,93 260,96 C261,99 269,134 269,134" id="Path-17" stroke="#253941" sketch:type="MSShapeGroup"></path>
            <path d="M482,2 C482,2 491,45 490,48 C489,51 467,80 467,82 C467,84 465,87 464,88 C463,89 461,90 460,91 C459,92 434.874162,128.419785 434,130 C433.125838,131.580215 435,134 435,134" id="Path-18" stroke="#253941" sketch:type="MSShapeGroup"></path>
            <g id="Path-23" stroke="#253941" fill="#6A6E75" sketch:type="MSShapeGroup">
                <path d="M342,91 L185,91 L181,87 L534.001416,87 L529.473098,91.5283183 L342,91 Z"></path>
            </g>
            <g id="Door" transform="translate(426.000000, 52.000000)" stroke="#253941" sketch:type="MSShapeGroup">
                <path d="M0,39 C0,39 8.8817842e-16,42 2.22044605e-16,44 C0,46 1,47 3,47 C5,47 22,47 24,47 C26,47 26,44 26,44 L26,39" id="Path-22"></path>
                <circle id="Oval-3" fill="#4E5F65" cx="32" cy="3" r="3"></circle>
            </g>
            <path d="M691,83 C692,83 717.000001,83 717.000001,83 C717.000001,83 722,85 722,88 C722,91 720,116 718,120 C716,124 707,132 700,132 C693,132 694,133 694,133 C694,133 694.193176,89 694,87 C693.806824,85 690,83 691,83 Z" id="Path-34" fill="#2B3F47" sketch:type="MSShapeGroup"></path>
            <path d="M678,37 C678,37 683,38 685,52 C687,66 690,83 691,84 C692,85 694,85 694,89 L694,133" id="Path-33" stroke="#253941" sketch:type="MSShapeGroup"></path>
            <g id="Light" transform="translate(619.000000, 82.000000)" stroke="#253941" sketch:type="MSShapeGroup">
                <path d="M70,4 L70,3.99582624 C70,1.79652125 68.206321,0 65.9937057,0 L51.0062943,0 C48.7856329,0 47,1.78899235 47,3.99582624 L47,4 L0,4 L5,8.173244 L47.0035444,8.173244 C47.0926517,10.2948078 48.8506535,12 51.0062943,12 L65.9937057,12 C68.1573725,12 69.9080548,10.3016603 69.9964941,8.173244 L73.9970093,8.173244 C74.5529938,8.173244 75,7.72570966 75,7.17364808 L75,4.99959592 C75,4.44661021 74.5507135,4 73.9964906,4 L70,4 Z" id="Rectangle-32" fill="#6A6E75"></path>
                <rect id="Rectangle-32" fill="#CC6262" x="49" y="2" width="19" height="8" rx="2"></rect>
            </g>
            <g id="Rear-view-mirror" transform="translate(270.000000, 22.000000)" sketch:type="MSShapeGroup">
                <path d="M21,25 L21,21 L2,23 C2,23 2,25 3.05555556,25 L21,25 Z" id="Path-335" fill="#8B8B8B"></path>
                <path d="M38.6630244,16.9999992 C38.6630244,16.9999992 39.5753555,16.3953125 39.5956293,16.0651851 C39.7523201,13.5137087 40.4213914,4.52612914 39.5956293,2.04297438 C38.6630244,-0.761467915 34,2.04297435 34,2.04297435 L34.9326049,12.3259295 L38.6630244,16.9999992 Z" id="Path-340" stroke="#253941" fill="#2B3F47"></path>
                <path d="M21,25 L21,21 L35,12 L40,17 L33,25 L21,25 Z" id="Path-334" fill="#8B8B8B"></path>
                <path d="M21,21 C21,21 21,15.0000001 18,10 C17,10 2.99999997,16 1.99999997,18 C0.999999971,20 2,23 2,23 L21,21 Z" id="Path-337" fill="#D9D9D9"></path>
                <path d="M21,21 L35,12 L35,1 L18,11 L20,15 L21,21 Z" id="Path-339" fill="#D9D9D9"></path>
                <path d="M33,25 L3,25 C3,25 1.05249143e-13,23 1,19 C2,15 18.0000009,10.9999995 18.0000009,10.9999995 L34.1335967,1.50964949 C34.6120985,1.22817784 35.0000008,1.44483697 35.0000008,1.99557749 L35,12 L39.2942268,16.2942268 C39.6840146,16.6840146 39.6992188,17.34375 39.341457,17.7526206 L33,25 Z" id="Path-333" stroke="#253941"></path>
                <path d="M1,23 L21,21 L35,12" id="Path-336" stroke="#253941"></path>
                <path d="M18,11 C18,11 21,15.625 21,20.3125 L21,25" id="Path-338" stroke="#253941"></path>
            </g>
            <path d="M511,131.000003 C511,131.000003 517,72.9999992 557,66 C567,64.0000001 592,58.9999995 618,73.9999998 C637,85.9999992 640,112.250518 640,118 C640,127.999997 639,135.000004 639,135.000004 C639,135.000004 642,99.9999994 619,79.9999996 C589,58.9999994 550,66.9999996 534,83.9999996 C518,101 511,131.000003 511,131.000003 Z" id="Wheelarch" stroke="#253941" fill="#ABABAB" sketch:type="MSShapeGroup"></path>
        </g>
        <g id="Outside" sketch:type="MSLayerGroup" transform="translate(6.000000, 28.000000)" stroke="#253941">
            <ellipse id="Oval-1" fill="#43808C" sketch:type="MSShapeGroup" cx="8.5" cy="95.5" rx="6.5" ry="3.5"></ellipse>
            <ellipse id="Oval-1" fill="#43808C" sketch:type="MSShapeGroup" cx="8.5" cy="105.5" rx="6.5" ry="3.5"></ellipse>
            <path d="M64.3992834,91.1732439 L27,91.173244 L27,87 L111,87 L107.9481,91.7244442 L64.3992834,91.1732439 Z" id="Path-23" fill="#6A6E75" sketch:type="MSShapeGroup"></path>
            <path d="M28,97.0046037 C28,96.4497764 28.0005135,95.5437101 28.0017331,95.0010768 C28.0017331,95.0010768 28,71 29,69 C30,67 34.0382053,66.2307587 34.0382053,66.2307587 C34.5693899,66.1033142 34.5540917,65.9310376 34.0016954,65.8526261 C34.0016954,65.8526261 23,64 20,67 C18.3301068,68.6698932 17.589728,73.1283298 16.5716049,77.27093 C15.7606474,80.5706024 14.7734757,83.6698932 13,85 C9,88 9,90 9,91 C9,92 8,108 9,109 C10,110 19.9999998,124 23,125 C26.0000002,126 37.9999998,130 38,131 C38.0000002,132 38,140.997152 38,140.997152 C38,141.55101 37.5719299,142.123779 37.0520558,142.300339 C37.0520558,142.300339 33.9999998,143 34,145 C34.0000002,147 37.0112358,146.931838 37.0112358,146.931838 C37.5573152,146.969483 38.4539735,147 39.0016111,147 L88,147 C88.9999983,147 89.0000017,136 89,135 C88.9999983,134 27.9999998,120 28,119 C28.0000002,118 28,97.0046037 28,97.0046037 Z" id="Front-spoiler" fill="#2B3F47" sketch:type="MSShapeGroup"></path>
            <g id="Pipes" transform="translate(61.000000, 55.000000)" fill="#B0B8C7" sketch:type="MSShapeGroup">
                <path d="M17.9999999,29 C17.9999999,29 17,19 18,16 C19,13 21.9999998,10 25,11 C28.0000002,12 29,14 39,16 C49,18 66,8 66,8 L81,3 C81,3 70.0000017,3 65,5 C59.9999983,7 52,12 46,13 C40,14 37,12 34,11 C31,10 28,7 24,7 C20,7 17,9 15,13 C13,17 14,29 14,29 L17.9999999,29 Z" id="Path-19"></path>
                <path d="M8,30 C8,30 7,13 8,13 C9,13 18.9999998,17 26,19 C33.0000002,21 42,22 50,19 C58,16 73.0000017,9 78,7 C82.9999983,5 91.0000017,3 106,4 C120.999998,5 136.000002,15.0000008 144,24 C151.999998,32.9999992 159.000002,42.0000027 163,62 C166.999998,81.9999973 164,85 166,89 C168,92 172.000002,101.000003 190,102 C207.999998,102.999997 216,103 216,103 L215.999998,98.9999973 C215.999998,98.9999973 192,98 187,98 C183.356307,98 169,93 169,86 C168.999998,74.9999973 165.000002,51.0000008 161,43 C156.999998,34.9999992 141.000002,1.99999988 100,1.11022302e-16 C76,1.11022302e-16 65,9 57,12 C49,15 44.9999998,18 36,17 C27.0000002,16 16,12 11,10 C5.99999997,8 2.99999979,10 3,13 C3.00000021,16 3,29 3,29 L8,30 Z" id="Path-20"></path>
                <rect id="Rectangle-15" x="11" y="21" width="9" height="3"></rect>
                <rect id="Rectangle-15" x="1" y="18" width="9" height="3"></rect>
                <rect id="Rectangle-15" x="0" y="24" width="11" height="6"></rect>
                <rect id="Rectangle-18" x="215" y="94" width="181" height="13"></rect>
            </g>
            <path d="M52,106 C52,106 52,108 53,108 L80,108 L80,104 L84,100 L84,83.9687805 L81,83 L57,83 L52,88 L52,104 L52,106 Z" id="Path-9" fill="#B0B8C7" sketch:type="MSShapeGroup"></path>
            <rect id="Rectangle-5" fill="#B0B8C7" sketch:type="MSShapeGroup" x="42" y="90" width="10" height="18"></rect>
            <path d="M38,131 C38,131 46,133 55,134 C64,135 76,137 76,137" id="Path-7" sketch:type="MSShapeGroup"></path>
            <path d="M28,119 C28,119 26,118 24,118" id="Path-8" sketch:type="MSShapeGroup"></path>
            <path d="M37,142 L78,142" id="Path-6" sketch:type="MSShapeGroup"></path>
            <g id="Group" transform="translate(0.000000, 90.000000)" fill="#4B9A93" sketch:type="MSShapeGroup">
                <path d="M35,3.45967991 C35,4.01237984 34.5444793,4.46043165 34.0017544,4.46043165 L6.99824564,4.46043165 C6.4469298,4.46043165 5.55733967,4.48373269 5.00104344,4.55529659 C5.00104344,4.55529659 3,4.46043165 3,6.10071942 C3,7.74100719 1.99999997,7 1.99999997,7 C2.00000002,7 -4.12841661e-09,6.10071945 0.999999997,4 C0.999999997,4 1.99999994,2 6.99999994,2 L34.0019531,2 C34.5531592,2 35,2.45128109 35,3.00075174 L35,3.45967991 Z" id="Path-4"></path>
                <path d="M36,13.4596799 C36,14.0123798 35.5444793,14.4604317 35.0017544,14.4604317 L7.99824564,14.4604317 C7.4469298,14.4604317 6.55733967,14.4837327 6.00104344,14.5552966 C6.00104344,14.5552966 4,14.4604317 4,16.1007194 C4,17.7410072 2.99999997,17 2.99999997,17 C3.00000002,17 0.999999996,16.1007195 2,14 C2,14 2.99999994,12 7.99999994,12 L35.0019531,12 C35.5531592,12 36,12.4512811 36,13.0007517 L36,13.4596799 Z" id="Path-4"></path>
                <rect id="Rectangle-1" x="33" y="11" width="5" height="4" rx="1"></rect>
                <rect id="Rectangle-1" x="36" y="10" width="7" height="6" rx="1"></rect>
                <rect id="Rectangle-1" x="33" y="1" width="5" height="4" rx="1"></rect>
                <rect id="Rectangle-1" x="36" y="0" width="7" height="6" rx="1"></rect>
            </g>
            <path d="M90,131.999998 C90,131.999998 101,72.9999992 141,66 C151,64 171,60 197,75.0000003 C216,86.9999998 222,114.250518 222,120 C222,129.999997 222,134.999998 222,134.999998 C222,134.999998 223,102 200,82.0000001 C170,61 131,68.0000001 115,85.0000001 C98.9999999,102 90,131.999998 90,131.999998 Z" id="Wheelarch" fill="#ABABAB" sketch:type="MSShapeGroup"></path>
            <g id="Wires" transform="translate(68.000000, 53.000000)" sketch:type="MSShapeGroup">
                <path d="M1,30 C1,30 1.54149832e-07,22.0000002 4.99999986,19.0000001 C9.99999957,16 13.6507075,12.3833672 25,13 C29.9068045,13.2665978 35.551445,16.5303146 42.0119405,16.9444622 C54.4200314,17.7398781 69.149235,3.18860135 87.0000019,3.99999993 C109.000002,5.00000004 133.377311,16.8124861 148.000002,40.9999996 C162.452133,64.9053881 154.417035,92.9774499 166.000002,92.9999996 C181.678057,93.0305215 202.198525,103.318654 225.210109,103.861596 C265.275113,104.806902 310.860225,96.5246294 337.000002,98.9999996 C355.939609,100.793532 408.880054,108.005251 437.000002,85.0000001 C469.981069,58.0178122 478.000002,0 478.000002,0 L481.000002,1.00000001 C481.000002,1.00000001 473.836525,61.4054099 437.000002,90.0000001 C409.199615,111.580231 352.483631,103.720403 337.000002,102 C313.899528,99.4332802 266.997764,107.844857 225.000002,107 C201.54805,106.528223 180.183021,96.8689468 164.000002,95.9999996 C151.335179,95.3199619 160.000002,70.9999996 146.000002,43.9999996 C134.054898,20.9630144 107.0395,8.32201273 87.0570529,7.00117612 C70.3354336,5.8958797 54.4303904,20.7717697 42.0000019,19.9999999 C34.6498147,19.5436463 28.3216005,16.2595024 23,16.0000001 C12.4387943,15.4849939 9.99999998,19.9999999 6,22 C3.99999993,23.0000001 4,30 4,30 L1,30 Z" id="Rectangle-19" fill="#DB8250"></path>
                <path d="M3,30 C3,30 2.00000015,22.0000002 6.99999986,19.0000001 C11.9999996,16 16.6507075,14.3833672 28,15 C32.9068045,15.2665978 37.5395063,18.5858524 44.0000019,19 C56.4080927,19.7954159 71.149235,0.188601414 89.0000019,1 C111.000002,2.00000011 132.377311,18.8124865 147.000002,43 C161.452133,66.9053885 155.417035,94.9774503 167.000002,95 C182.678057,95.030522 205.988418,105.457058 229.000002,106 C269.065006,106.945306 313.860225,94.5246299 340.000002,97 C358.939609,98.7935324 410.880054,110.00525 439.000002,87 C471.981069,60.0178121 475.000002,0 475.000002,0 L478.000002,1.00000001 C478.000002,1.00000001 475.836525,63.4054098 439.000002,92 C411.199615,113.580231 355.483631,101.720403 340.000002,100 C316.899528,97.4332806 270.787657,109.983261 228.789895,109.138403 C205.337944,108.666627 181.183021,98.8689472 165.000002,98 C152.335179,97.3199623 159.000002,73 145.000002,46 C133.054898,22.9630148 109.0395,5.3220128 89.0570529,4.00117619 C72.3354336,2.89587977 56.4184518,22.8273075 43.9880632,22.0555377 C36.637876,21.5991841 31.3216005,18.2595024 26,18.0000001 C15.4387943,17.4849939 12,19.9999999 8,22 C5.99999993,23.0000001 6,30 6,30 L3,30 Z" id="Rectangle-19" fill="#DB8250"></path>
                <path d="M6,30 C6,30 5.00000015,22.0000002 9.99999986,19.0000001 C14.9999996,16 19.6507075,14.3833672 31,15 C35.9068045,15.2665978 40.5395063,18.5858524 47.0000019,19 C59.4080927,19.7954159 74.149235,0.188601414 92.0000019,1 C114.000002,2.00000011 136.208662,18.8485389 152.000002,43 C169.000002,69 152.417035,96.9774503 164.000002,97 C179.678057,97.030522 208.988418,101.457058 232.000002,102 C272.065006,102.945306 318.860225,99.6630347 345.000002,102.138405 C363.939609,103.931937 413.880054,112.00525 442.000002,89 C474.981069,62.0178121 472.000002,-5.62697964e-09 472.000002,-5.62697964e-09 L475.000002,1 C475.000002,1 478.836525,65.4054098 442.000002,94 C414.199615,115.580231 360.483631,106.858808 345.000002,105.138405 C321.899528,102.571685 273.787657,105.983261 231.789895,105.138403 C208.337944,104.666627 178.183021,100.868947 162.000002,100 C149.335179,99.3199623 164.000002,73 150.000002,46 C138.054898,22.9630148 112.0395,5.3220128 92.0570529,4.00117619 C75.3354336,2.89587977 59.4184518,22.8273075 46.9880632,22.0555377 C39.637876,21.5991841 34.3216005,18.2595024 29,18.0000001 C18.4387943,17.4849939 15,19.9999999 11,22 C8.99999993,23.0000001 9,30 9,30 L6,30 Z" id="Rectangle-19" fill="#DB8250"></path>
                <g id="Clips" transform="translate(25.000000, 12.000000)">
                    <path d="M3.99999993,10.9388522 C3.99999993,10.9388522 1.99999975,13.3264347 0.999999986,10.9388522 C2.23250199e-07,8.55126981 0.083430739,2.91384531 1.99999975,1.38852313 C4.99999975,-0.999059307 4.99999979,3.77610546 4.99999979,3.77610546" id="Path-21"></path>
                    <path d="M115.102009,21.0823286 C115.102009,21.0823286 113.374918,23.469911 112.511373,21.0823286 C111.647828,18.6947461 111.719874,13.0573216 113.374918,11.5319995 C115.965554,9.14441702 115.965554,13.9195818 115.965554,13.9195818" id="Path-21" transform="translate(113.965554, 16.503476) rotate(27.000000) translate(-113.965554, -16.503476) "></path>
                    <path d="M136.857688,86.778576 C136.857688,86.778576 134.649319,87.4011199 133.785774,85.0135375 C132.922229,82.625955 132.987788,81.6128622 134.642832,80.08754 C137.233468,77.6999576 137.769842,79.616575 137.769842,79.616575" id="Path-21" transform="translate(135.503731, 82.870276) rotate(27.000000) translate(-135.503731, -82.870276) "></path>
                    <path d="M257.103942,92.0720364 C257.103942,92.0720364 255.217255,94.1945369 254.248173,93.1864521 C253.27909,92.1783673 252.905685,90.3202876 254.753241,89.0943981 C256.616464,87.8581133 257.852749,89.7213362 257.852749,89.7213362" id="Path-21" transform="translate(255.648319, 91.064434) rotate(7.000000) translate(-255.648319, -91.064434) "></path>
                    <path d="M367.397455,95.7153783 C367.397455,95.7153783 364.396352,97.6768863 363.42727,96.2028556 C362.458188,94.7288248 361.579714,90.9256699 363.42727,89.1331631 C365.290493,87.3254562 366.666239,89.7601012 366.666239,89.7601012" id="Path-21" transform="translate(364.871965, 92.608526) rotate(7.000000) translate(-364.871965, -92.608526) "></path>
                </g>
            </g>
            <g id="Rear-pipes" transform="translate(509.000000, 0.000000)" sketch:type="MSShapeGroup">
                <path d="M16.0000003,5.00000021 C16.048341,2.59579255 15.269394,1.56925245 11.0000003,0.999999974 C6.73060661,0.430747495 2.00000002,0.999999877 1,1.99999993 C-1.98354686e-08,2.99999998 6.02198359,1.54333364 6,4.00000021 C5.91255446,13.7720401 5.688487,40.7256919 6,47.5100594 C6.3898266,56 14.9999997,57 14.9999997,57 C14.9999997,57 148.083581,66.3611936 153,68 C156,69 156.380875,70.6216095 157,74 C159.826965,89.4259504 162.222457,137.142881 162.999994,150.999996 C163.156808,153.794714 156.990525,152.231998 158.999994,153.999996 C161.009462,155.767993 164.999994,155.999996 166.999994,154.999996 C168.999994,153.999996 173.117943,152.150487 172.778057,147.421066 C171.377406,127.931431 167.720708,74.5815248 166.999994,70.0000032 C166.104388,64.3067142 163.999987,59.9999988 158.999994,58.9999994 C154,58 16.9999997,49 16,47.5100579 C15.1824153,46.2919036 15.7833369,15.775671 16.0000003,5.00000021 Z" id="Rectangle-19" fill="#FBFBFB"></path>
                <g id="Clips" transform="translate(87.000000, 58.000000) rotate(-2.000000) translate(-87.000000, -58.000000) translate(38.000000, 46.000000)" fill="#6A6E75">
                    <path d="M2,1 C3.00000001,1.00000001 5.99999998,0.99999999 7,1 C8.00000002,1.00000001 8.00000002,4 7.00000007,3.99999993 C6.00000012,3.99999986 2.99999995,4.00000016 2,4 C1.00000005,3.99999984 0.999999993,0.999999986 2,1 Z" id="Path-48" transform="translate(4.500000, 2.500000) rotate(6.000000) translate(-4.500000, -2.500000) "></path>
                    <path d="M91.9651005,10.9993908 C92.9651005,10.9993908 95.9651005,10.9993908 96.9651005,10.9993908 C97.9651005,10.9993908 97.9651005,13.9993908 96.9651006,13.9993908 C95.9651006,13.9993907 92.9651005,13.999391 91.9651005,13.9993908 C90.9651006,13.9993907 90.9651005,10.9993908 91.9651005,10.9993908 Z" id="Path-48" transform="translate(94.465101, 12.499391) rotate(6.000000) translate(-94.465101, -12.499391) "></path>
                    <path d="M91,20 C92,20 95,20 96,20 C97,20 97,23 96.0000001,22.9999999 C95.0000001,22.9999999 91.9999999,23.0000002 91,23 C90.0000001,22.9999998 90,20 91,20 Z" id="Path-48" transform="translate(93.500000, 21.500000) rotate(6.000000) translate(-93.500000, -21.500000) "></path>
                    <path d="M1,10 C2.00000001,10 4.99999998,9.99999999 6,10 C7.00000002,10 7.00000002,13 6.00000007,12.9999999 C5.00000012,12.9999999 1.99999995,13.0000002 1,13 C5.0551141e-08,12.9999998 -7.34326333e-09,9.99999999 1,10 Z" id="Path-48" transform="translate(3.500000, 11.500000) rotate(6.000000) translate(-3.500000, -11.500000) "></path>
                </g>
            </g>
        </g>
        <g id="Wheel" sketch:type="MSLayerGroup" transform="translate(99.000000, 110.000000)" stroke="#253941">
            <g id="Wheel-holder" transform="translate(22.000000, 0.000000)" sketch:type="MSShapeGroup">
                <rect id="Rectangle-28" fill="#445359" x="51" y="18" width="27" height="14"></rect>
                <path d="M37,39 C37,39 42,14 43,10 C44,6 40,25 42,26 C44,27 45,26 46,24 C47,22 48,8.99999998 48,6 C48,3.00000002 48,0 44,0 C40,0 38,9 36,18 C34,27 31,39 31,39 L37,39 Z" id="Path-341" fill="#445359"></path>
                <path d="M44,39 C44,39 49,14 50,10 C51,6 47,25 49,26 C51,27 52,26 53,24 C54,22 55,8.99999998 55,6 C55,3.00000002 55,0 51,0 C47,0 45,9 43,18 C41,27 38,39 38,39 L44,39 Z" id="Path-341" fill="#445359"></path>
                <path d="M51,39 C51,39 56,14 57,10 C58,6 54,25 56,26 C58,27 59,26 60,24 C61,22 62,8.99999998 62,6 C62,3.00000002 62,0 58,0 C54,0 52,9 50,18 C48,27 45,39 45,39 L51,39 Z" id="Path-341" fill="#445359"></path>
                <g id="Plate" transform="translate(0.000000, 9.000000)">
                    <rect id="Rectangle-30" fill="#445359" transform="translate(14.000000, 13.000000) rotate(30.000000) translate(-14.000000, -13.000000) " x="4" y="4" width="20" height="18"></rect>
                    <circle id="Oval-11" fill="#ABABAB" cx="12" cy="7" r="1"></circle>
                    <circle id="Oval-11" fill="#ABABAB" cx="8" cy="15" r="1"></circle>
                    <circle id="Oval-11" fill="#ABABAB" cx="10" cy="11" r="1"></circle>
                </g>
            </g>
            <path d="M0.058116733,83.0782967 C0.058116733,83.0782967 -0.362247851,51.4340814 1.05811678,47.0782965 C2.47848141,42.7225116 7.05811691,38.0782965 16.0581169,37.0782965 C25.0581169,36.0782965 82.2228695,35.857169 93.0581167,36.0782965 C103.893364,36.299424 106.52297,36.8107233 113.058117,40.0782965 C119.593263,43.3458697 119.058117,49.0782965 119.058117,49.0782965 L119.058113,83.0782967 L81.0581167,86.0782965 L0.058116733,83.0782967 Z" id="Path-52" fill="#4E5F65" sketch:type="MSShapeGroup"></path>
            <g id="Group-3" transform="translate(0.000000, 78.000000)" sketch:type="MSShapeGroup">
                <path d="M59.5,12 C92.3609426,12 119,7.98528137 119,5.5 C119,3.01471863 92.3609426,0 59.5,0 C26.6390574,0 0,3.01471863 0,5.5 C0,7.98528137 26.6390574,12 59.5,12 Z" id="Oval-4" fill="#4E5F65"></path>
                <path d="M59.5,9 C84.6289561,9 105,7.32720057 105,6.29166667 C105,5.25613276 84.6289561,4 59.5,4 C34.3710439,4 14,5.25613276 14,6.29166667 C14,7.32720057 34.3710439,9 59.5,9 Z" id="Oval-4" fill="#253941"></path>
            </g>
            <g id="Group-4" transform="translate(1.000000, 68.000000)" sketch:type="MSShapeGroup">
                <path d="M3,5 L6,7" id="Path-56"></path>
                <path d="M0,6 L3,8" id="Path-56"></path>
                <path d="M6,4 L9,6" id="Path-56"></path>
                <path d="M9,3 L12,5" id="Path-56"></path>
                <path d="M13,2 L16,4" id="Path-56"></path>
                <path d="M17.5,1.5 L20,4" id="Path-56"></path>
                <path d="M20.5,1.5 L23,4" id="Path-56"></path>
                <path d="M24,1 L27,4" id="Path-56"></path>
                <path d="M28,1 L31,4" id="Path-56"></path>
                <path d="M31.5,0.5 L34.8284271,3.82842712" id="Path-56"></path>
                <path d="M38.5,0.5 L41.8284271,3.82842712" id="Path-56"></path>
                <path d="M45.5,0.5 L48.8284271,3.82842712" id="Path-56"></path>
                <path d="M52.5,0.5 L55.8284271,3.82842712" id="Path-56"></path>
                <path d="M59,0 L62.8284271,3.82842712" id="Path-56"></path>
                <path d="M67.5,0.5 L70.8284271,3.82842712" id="Path-56"></path>
                <path d="M74.5,0.5 L77.8284271,3.82842712" id="Path-56"></path>
                <path d="M81.5,0.5 L84.8284271,3.82842712" id="Path-56"></path>
                <path d="M89.5,1 L93.3284271,4.32842712" id="Path-56"></path>
                <path d="M94.5,1.5 L97.3284271,4.82842712" id="Path-56"></path>
                <path d="M98.5,1.5 L101.328427,4.82842712" id="Path-56"></path>
                <path d="M84.5,0.5 L87.8284271,3.82842712" id="Path-56"></path>
                <path d="M77.5,0.5 L80.8284271,3.82842712" id="Path-56"></path>
                <path d="M70.5,0.5 L73.8284271,3.82842712" id="Path-56"></path>
                <path d="M62.5,0.5 L65.8284271,3.82842712" id="Path-56"></path>
                <path d="M55.5,0.5 L58.8284271,3.82842712" id="Path-56"></path>
                <path d="M48.5,0.5 L51.8284271,3.82842712" id="Path-56"></path>
                <path d="M41.5,0.5 L44.8284271,3.82842712" id="Path-56"></path>
                <path d="M34.5,0.5 L37.8284271,3.82842712" id="Path-56"></path>
                <path d="M103.5,2.5 L106.328427,5.82842712" id="Path-56"></path>
                <path d="M108.5,3.5 L110.328427,6.82842712" id="Path-56"></path>
                <path d="M112.5,4.5 L113.328427,7.82842712" id="Path-56"></path>
                <path d="M115,6 L115.5,8.5" id="Path-56"></path>
                <path d="M94.5,1.5 L97.3284271,4.82842712" id="Path-56"></path>
            </g>
            <g id="Group-4-Copy" transform="translate(1.000000, 57.000000)" sketch:type="MSShapeGroup">
                <path d="M3.5,4.5 L4.5,7.5" id="Path-56" transform="translate(4.000000, 6.000000) scale(-1, 1) translate(-4.000000, -6.000000) "></path>
                <path d="M0.5,5.5 L1.5,8.5" id="Path-56" transform="translate(1.000000, 7.000000) scale(-1, 1) translate(-1.000000, -7.000000) "></path>
                <path d="M7,3 L9,6" id="Path-56" transform="translate(8.000000, 4.500000) scale(-1, 1) translate(-8.000000, -4.500000) "></path>
                <path d="M9.5,2.5 L11.5,5.5" id="Path-56" transform="translate(10.500000, 4.000000) scale(-1, 1) translate(-10.500000, -4.000000) "></path>
                <path d="M13.5,1.5 L15.5,5.5" id="Path-56" transform="translate(14.500000, 3.500000) scale(-1, 1) translate(-14.500000, -3.500000) "></path>
                <path d="M17.5,1.5 L18.5,4.5" id="Path-56" transform="translate(18.000000, 3.000000) scale(-1, 1) translate(-18.000000, -3.000000) "></path>
                <path d="M20.5,1.5 L22.5,4.5" id="Path-56" transform="translate(21.500000, 3.000000) scale(-1, 1) translate(-21.500000, -3.000000) "></path>
                <path d="M24,1 L27,4" id="Path-56" transform="translate(25.500000, 2.500000) scale(-1, 1) translate(-25.500000, -2.500000) "></path>
                <path d="M28,1 L31,4" id="Path-56" transform="translate(29.500000, 2.500000) scale(-1, 1) translate(-29.500000, -2.500000) "></path>
                <path d="M31.5,0.5 L34.8284271,3.82842712" id="Path-56" transform="translate(33.164214, 2.164214) scale(-1, 1) translate(-33.164214, -2.164214) "></path>
                <path d="M38.5,0.5 L41.8284271,3.82842712" id="Path-56" transform="translate(40.164214, 2.164214) scale(-1, 1) translate(-40.164214, -2.164214) "></path>
                <path d="M45.5,0.5 L48.8284271,3.82842712" id="Path-56" transform="translate(47.164214, 2.164214) scale(-1, 1) translate(-47.164214, -2.164214) "></path>
                <path d="M52.5,0.5 L55.8284271,3.82842712" id="Path-56" transform="translate(54.164214, 2.164214) scale(-1, 1) translate(-54.164214, -2.164214) "></path>
                <path d="M59,0 L62.8284271,3.82842712" id="Path-56" transform="translate(60.914214, 1.914214) scale(-1, 1) translate(-60.914214, -1.914214) "></path>
                <path d="M67.5,0.5 L70.8284271,3.82842712" id="Path-56" transform="translate(69.164214, 2.164214) scale(-1, 1) translate(-69.164214, -2.164214) "></path>
                <path d="M74.5,0.5 L77.8284271,3.82842712" id="Path-56" transform="translate(76.164214, 2.164214) scale(-1, 1) translate(-76.164214, -2.164214) "></path>
                <path d="M81.5,0.5 L84.8284271,3.82842712" id="Path-56" transform="translate(83.164214, 2.164214) scale(-1, 1) translate(-83.164214, -2.164214) "></path>
                <path d="M89.5,1 L93.3284271,4.32842712" id="Path-56" transform="translate(91.500000, 3.000000) scale(-1, 1) translate(-91.500000, -3.000000) "></path>
                <path d="M94.5,1.5 L97.3284271,4.82842712" id="Path-56" transform="translate(96.000000, 3.000000) scale(-1, 1) translate(-96.000000, -3.000000) "></path>
                <path d="M99,1.5 L101.5,5" id="Path-56" transform="translate(100.250000, 3.250000) scale(-1, 1) translate(-100.250000, -3.250000) "></path>
                <path d="M84.5,0.5 L87.8284271,3.82842712" id="Path-56" transform="translate(86.000000, 2.000000) scale(-1, 1) translate(-86.000000, -2.000000) "></path>
                <path d="M77.5,0.5 L80.8284271,3.82842712" id="Path-56" transform="translate(79.000000, 2.000000) scale(-1, 1) translate(-79.000000, -2.000000) "></path>
                <path d="M70.5,0.5 L73.8284271,3.82842712" id="Path-56" transform="translate(72.000000, 2.000000) scale(-1, 1) translate(-72.000000, -2.000000) "></path>
                <path d="M62.5,0.5 L65.8284271,3.82842712" id="Path-56" transform="translate(64.000000, 2.000000) scale(-1, 1) translate(-64.000000, -2.000000) "></path>
                <path d="M55.5,0.5 L58.8284271,3.82842712" id="Path-56" transform="translate(57.000000, 2.000000) scale(-1, 1) translate(-57.000000, -2.000000) "></path>
                <path d="M48.5,0.5 L51.8284271,3.82842712" id="Path-56" transform="translate(50.000000, 2.000000) scale(-1, 1) translate(-50.000000, -2.000000) "></path>
                <path d="M41.5,0.5 L44.8284271,3.82842712" id="Path-56" transform="translate(43.000000, 2.000000) scale(-1, 1) translate(-43.000000, -2.000000) "></path>
                <path d="M34.5,0.5 L37.8284271,3.82842712" id="Path-56" transform="translate(36.000000, 2.000000) scale(-1, 1) translate(-36.000000, -2.000000) "></path>
                <path d="M103.5,2.5 L106.328427,5.82842712" id="Path-56" transform="translate(105.000000, 4.000000) scale(-1, 1) translate(-105.000000, -4.000000) "></path>
                <path d="M108.5,3.5 L110.328427,6.82842712" id="Path-56" transform="translate(109.500000, 5.000000) scale(-1, 1) translate(-109.500000, -5.000000) "></path>
                <path d="M112.5,4.5 L113.328427,7.82842712" id="Path-56" transform="translate(113.000000, 6.000000) scale(-1, 1) translate(-113.000000, -6.000000) "></path>
                <path d="M115,6 L115.5,8.5" id="Path-56" transform="translate(115.250000, 7.250000) scale(-1, 1) translate(-115.250000, -7.250000) "></path>
                <path d="M94.5,1.5 L97.3284271,4.82842712" id="Path-56" transform="translate(96.000000, 3.000000) scale(-1, 1) translate(-96.000000, -3.000000) "></path>
            </g>
            <g id="Group-4-Copy-3" transform="translate(2.000000, 36.000000)" sketch:type="MSShapeGroup">
                <path d="M3,5 L3.5,8.5" id="Path-56" transform="translate(3.500000, 7.000000) scale(-1, 1) translate(-3.500000, -7.000000) "></path>
                <path d="M1.5,6.5 L1.5,9.5" id="Path-56" transform="translate(1.500000, 8.000000) scale(-1, 1) translate(-1.500000, -8.000000) "></path>
                <path d="M6,3 L6.5,6.5" id="Path-56" transform="translate(6.500000, 5.000000) scale(-1, 1) translate(-6.500000, -5.000000) "></path>
                <path d="M9,1.5 L10.5,5" id="Path-56" transform="translate(9.750000, 3.250000) scale(-1, 1) translate(-9.750000, -3.250000) "></path>
                <path d="M12.5,1 L14,5.5" id="Path-56" transform="translate(13.250000, 3.250000) scale(-1, 1) translate(-13.250000, -3.250000) "></path>
                <path d="M16.5,0.5 L17.5,3.5" id="Path-56" transform="translate(17.000000, 2.000000) scale(-1, 1) translate(-17.000000, -2.000000) "></path>
                <path d="M19.5,0.5 L21.5,3.5" id="Path-56" transform="translate(20.500000, 2.000000) scale(-1, 1) translate(-20.500000, -2.000000) "></path>
                <path d="M23.5,0.5 L26,4" id="Path-56" transform="translate(24.500000, 2.000000) scale(-1, 1) translate(-24.500000, -2.000000) "></path>
                <path d="M27.5,0.5 L30,4" id="Path-56" transform="translate(28.500000, 2.000000) scale(-1, 1) translate(-28.500000, -2.000000) "></path>
                <path d="M30.5,0.5 L33.8284271,3.82842712" id="Path-56" transform="translate(32.164214, 2.164214) scale(-1, 1) translate(-32.164214, -2.164214) "></path>
                <path d="M37.5,0.5 L40.8284271,3.82842712" id="Path-56" transform="translate(39.164214, 2.164214) scale(-1, 1) translate(-39.164214, -2.164214) "></path>
                <path d="M44.5,0.5 L47.8284271,3.82842712" id="Path-56" transform="translate(46.164214, 2.164214) scale(-1, 1) translate(-46.164214, -2.164214) "></path>
                <path d="M51.5,0.5 L54.8284271,3.82842712" id="Path-56" transform="translate(53.164214, 2.164214) scale(-1, 1) translate(-53.164214, -2.164214) "></path>
                <path d="M58,0 L61.8284271,3.82842712" id="Path-56" transform="translate(59.914214, 1.914214) scale(-1, 1) translate(-59.914214, -1.914214) "></path>
                <path d="M65.5,0 L69,3.82842712" id="Path-56" transform="translate(67.250000, 1.914214) scale(-1, 1) translate(-67.250000, -1.914214) "></path>
                <path d="M72.5,0 L76,3.82842712" id="Path-56" transform="translate(74.250000, 1.914214) scale(-1, 1) translate(-74.250000, -1.914214) "></path>
                <path d="M79.1568543,0.5 L82.1568542,3.82842712" id="Path-56" transform="translate(80.828427, 2.500000) scale(-1, 1) translate(-80.828427, -2.500000) "></path>
                <path d="M88.5,0 L92.3284271,3.32842712" id="Path-56" transform="translate(90.500000, 2.000000) scale(-1, 1) translate(-90.500000, -2.000000) "></path>
                <path d="M98,0.5 L100.5,4" id="Path-56" transform="translate(99.250000, 2.250000) scale(-1, 1) translate(-99.250000, -2.250000) "></path>
                <path d="M83.1715729,0 L87,3.82842712" id="Path-56" transform="translate(85.085786, 1.914214) scale(-1, 1) translate(-85.085786, -1.914214) "></path>
                <path d="M76.5,0.5 L79.8284271,3.82842712" id="Path-56" transform="translate(78.000000, 2.000000) scale(-1, 1) translate(-78.000000, -2.000000) "></path>
                <path d="M69.1715729,0 L73,3.82842712" id="Path-56" transform="translate(71.085786, 1.914214) scale(-1, 1) translate(-71.085786, -1.914214) "></path>
                <path d="M61.1715729,0 L65,3.82842712" id="Path-56" transform="translate(63.085786, 1.914214) scale(-1, 1) translate(-63.085786, -1.914214) "></path>
                <path d="M54.5,0.5 L57.8284271,3.82842712" id="Path-56" transform="translate(56.000000, 2.000000) scale(-1, 1) translate(-56.000000, -2.000000) "></path>
                <path d="M47.5,0.5 L50.8284271,3.82842712" id="Path-56" transform="translate(49.000000, 2.000000) scale(-1, 1) translate(-49.000000, -2.000000) "></path>
                <path d="M40.5,0.5 L43.8284271,3.82842712" id="Path-56" transform="translate(42.000000, 2.000000) scale(-1, 1) translate(-42.000000, -2.000000) "></path>
                <path d="M33.5,0.5 L36.8284271,3.82842712" id="Path-56" transform="translate(35.000000, 2.000000) scale(-1, 1) translate(-35.000000, -2.000000) "></path>
                <path d="M102.5,1.5 L105.328427,4.82842712" id="Path-56" transform="translate(104.000000, 3.000000) scale(-1, 1) translate(-104.000000, -3.000000) "></path>
                <path d="M106.5,2.5 L108.328427,5.82842712" id="Path-56" transform="translate(107.500000, 4.000000) scale(-1, 1) translate(-107.500000, -4.000000) "></path>
                <path d="M109,4 L111,7" id="Path-56" transform="translate(110.000000, 5.500000) scale(-1, 1) translate(-110.000000, -5.500000) "></path>
                <path d="M113,6 L114.5,9" id="Path-56" transform="translate(113.750000, 7.500000) scale(-1, 1) translate(-113.750000, -7.500000) "></path>
                <path d="M93.6715729,0.5 L96.5,3.82842712" id="Path-56" transform="translate(95.085786, 2.164214) scale(-1, 1) translate(-95.085786, -2.164214) "></path>
            </g>
            <g id="Group-4-Copy-2" transform="translate(1.000000, 46.000000)" sketch:type="MSShapeGroup">
                <path d="M3,5 L6,7" id="Path-56"></path>
                <path d="M0,6 L3,8" id="Path-56"></path>
                <path d="M6,4 L9,6" id="Path-56"></path>
                <path d="M9,3 L12,5" id="Path-56"></path>
                <path d="M13,2 L16,4" id="Path-56"></path>
                <path d="M17.5,1.5 L20,4" id="Path-56"></path>
                <path d="M20.5,1.5 L23,4" id="Path-56"></path>
                <path d="M24,1 L27,4" id="Path-56"></path>
                <path d="M28,1 L31,4" id="Path-56"></path>
                <path d="M31.5,0.5 L34.8284271,3.82842712" id="Path-56"></path>
                <path d="M38.5,0.5 L41.8284271,3.82842712" id="Path-56"></path>
                <path d="M45.5,0.5 L48.8284271,3.82842712" id="Path-56"></path>
                <path d="M52.5,0.5 L55.8284271,3.82842712" id="Path-56"></path>
                <path d="M59,0 L62.8284271,3.82842712" id="Path-56"></path>
                <path d="M67.5,0.5 L70.8284271,3.82842712" id="Path-56"></path>
                <path d="M74.5,0.5 L77.8284271,3.82842712" id="Path-56"></path>
                <path d="M81.5,0.5 L84.8284271,3.82842712" id="Path-56"></path>
                <path d="M89.5,1 L93.3284271,4.32842712" id="Path-56"></path>
                <path d="M94.5,1.5 L97.3284271,4.82842712" id="Path-56"></path>
                <path d="M98.5,1.5 L101.328427,4.82842712" id="Path-56"></path>
                <path d="M84.5,0.5 L87.8284271,3.82842712" id="Path-56"></path>
                <path d="M77.5,0.5 L80.8284271,3.82842712" id="Path-56"></path>
                <path d="M70.5,0.5 L73.8284271,3.82842712" id="Path-56"></path>
                <path d="M62.5,0.5 L65.8284271,3.82842712" id="Path-56"></path>
                <path d="M55.5,0.5 L58.8284271,3.82842712" id="Path-56"></path>
                <path d="M48.5,0.5 L51.8284271,3.82842712" id="Path-56"></path>
                <path d="M41.5,0.5 L44.8284271,3.82842712" id="Path-56"></path>
                <path d="M34.5,0.5 L37.8284271,3.82842712" id="Path-56"></path>
                <path d="M103.5,2.5 L106.328427,5.82842712" id="Path-56"></path>
                <path d="M108.5,3.5 L110.328427,6.82842712" id="Path-56"></path>
                <path d="M112.5,4.5 L113.328427,7.82842712" id="Path-56"></path>
                <path d="M115,6 L115.5,8.5" id="Path-56"></path>
                <path d="M94.5,1.5 L97.3284271,4.82842712" id="Path-56"></path>
            </g>
            <path d="M0,74.9999999 C0,74.9999999 6,70.0000001 25,68.9999999 C44,67.9999998 83,67.9999999 92,68.9999999 C101,69.9999999 112,70.0000003 119,75.9999999" id="Path-53" sketch:type="MSShapeGroup"></path>
            <path d="M0,52.9999999 C0,52.9999999 6,48.0000001 25,46.9999999 C44,45.9999998 83,45.9999999 92,46.9999999 C101,47.9999999 112,48.0000003 119,53.9999999" id="Path-53" sketch:type="MSShapeGroup"></path>
            <path d="M0,63.9999999 C0,63.9999999 6,59.0000001 25,57.9999999 C44,56.9999998 83,56.9999999 92,57.9999999 C101,58.9999999 112,59.0000003 119,64.9999999" id="Path-53" sketch:type="MSShapeGroup"></path>
        </g>
        <g id="Wheel" sketch:type="MSLayerGroup" transform="translate(539.000000, 110.000000)" stroke="#253941">
            <g id="Wheel-holder-Copy" transform="translate(18.000000, 0.000000)" sketch:type="MSShapeGroup">
                <rect id="Rectangle-28" fill="#445359" x="55" y="18" width="27" height="14"></rect>
                <g id="Plate-Copy" transform="translate(18.000000, 22.000000) rotate(110.000000) translate(-18.000000, -22.000000) translate(4.000000, 9.000000)">
                    <rect id="Rectangle-30" fill="#445359" transform="translate(14.000000, 13.000000) rotate(30.000000) translate(-14.000000, -13.000000) " x="4" y="4" width="20" height="18"></rect>
                    <circle id="Oval-11" fill="#ABABAB" cx="12" cy="7" r="1"></circle>
                    <circle id="Oval-11" fill="#ABABAB" cx="8" cy="15" r="1"></circle>
                    <circle id="Oval-11" fill="#ABABAB" cx="10" cy="11" r="1"></circle>
                </g>
                <path d="M41,39 C41,39 46,14 47,10 C48,6 44,25 46,26 C48,27 49,26 50,24 C51,22 52,8.99999998 52,6 C52,3.00000002 52,0 48,0 C44,0 42,9 40,18 C38,27 35,39 35,39 L41,39 Z" id="Path-341" fill="#445359"></path>
                <path d="M48,39 C48,39 53,14 54,10 C55,6 51,25 53,26 C55,27 56,26 57,24 C58,22 59,8.99999998 59,6 C59,3.00000002 59,0 55,0 C51,0 49,9 47,18 C45,27 42,39 42,39 L48,39 Z" id="Path-341" fill="#445359"></path>
                <path d="M55,39 C55,39 60,14 61,10 C62,6 58,25 60,26 C62,27 63,26 64,24 C65,22 66,8.99999998 66,6 C66,3.00000002 66,0 62,0 C58,0 56,9 54,18 C52,27 49,39 49,39 L55,39 Z" id="Path-341" fill="#445359"></path>
            </g>
            <path d="M0.058116733,83.0782967 C0.058116733,83.0782967 -0.362247851,51.4340814 1.05811678,47.0782965 C2.47848141,42.7225116 7.05811691,38.0782965 16.0581169,37.0782965 C25.0581169,36.0782965 82.2228695,35.857169 93.0581167,36.0782965 C103.893364,36.299424 106.52297,36.8107233 113.058117,40.0782965 C119.593263,43.3458697 119.058117,49.0782965 119.058117,49.0782965 L119.058113,83.0782967 L81.0581167,86.0782965 L0.058116733,83.0782967 Z" id="Path-52" fill="#4E5F65" sketch:type="MSShapeGroup"></path>
            <g id="Group-3" transform="translate(0.000000, 78.000000)" sketch:type="MSShapeGroup">
                <path d="M59.5,12 C92.3609426,12 119,7.98528137 119,5.5 C119,3.01471863 92.3609426,0 59.5,0 C26.6390574,0 0,3.01471863 0,5.5 C0,7.98528137 26.6390574,12 59.5,12 Z" id="Oval-4" fill="#4E5F65"></path>
                <path d="M59.5,9 C84.6289561,9 105,7.32720057 105,6.29166667 C105,5.25613276 84.6289561,4 59.5,4 C34.3710439,4 14,5.25613276 14,6.29166667 C14,7.32720057 34.3710439,9 59.5,9 Z" id="Oval-4" fill="#253941"></path>
            </g>
            <g id="Group-4" transform="translate(1.000000, 68.000000)" sketch:type="MSShapeGroup">
                <path d="M3,5 L6,7" id="Path-56"></path>
                <path d="M0,6 L3,8" id="Path-56"></path>
                <path d="M6,4 L9,6" id="Path-56"></path>
                <path d="M9,3 L12,5" id="Path-56"></path>
                <path d="M13,2 L16,4" id="Path-56"></path>
                <path d="M17.5,1.5 L20,4" id="Path-56"></path>
                <path d="M20.5,1.5 L23,4" id="Path-56"></path>
                <path d="M24,1 L27,4" id="Path-56"></path>
                <path d="M28,1 L31,4" id="Path-56"></path>
                <path d="M31.5,0.5 L34.8284271,3.82842712" id="Path-56"></path>
                <path d="M38.5,0.5 L41.8284271,3.82842712" id="Path-56"></path>
                <path d="M45.5,0.5 L48.8284271,3.82842712" id="Path-56"></path>
                <path d="M52.5,0.5 L55.8284271,3.82842712" id="Path-56"></path>
                <path d="M59,0 L62.8284271,3.82842712" id="Path-56"></path>
                <path d="M67.5,0.5 L70.8284271,3.82842712" id="Path-56"></path>
                <path d="M74.5,0.5 L77.8284271,3.82842712" id="Path-56"></path>
                <path d="M81.5,0.5 L84.8284271,3.82842712" id="Path-56"></path>
                <path d="M89.5,1 L93.3284271,4.32842712" id="Path-56"></path>
                <path d="M94.5,1.5 L97.3284271,4.82842712" id="Path-56"></path>
                <path d="M98.5,1.5 L101.328427,4.82842712" id="Path-56"></path>
                <path d="M84.5,0.5 L87.8284271,3.82842712" id="Path-56"></path>
                <path d="M77.5,0.5 L80.8284271,3.82842712" id="Path-56"></path>
                <path d="M70.5,0.5 L73.8284271,3.82842712" id="Path-56"></path>
                <path d="M62.5,0.5 L65.8284271,3.82842712" id="Path-56"></path>
                <path d="M55.5,0.5 L58.8284271,3.82842712" id="Path-56"></path>
                <path d="M48.5,0.5 L51.8284271,3.82842712" id="Path-56"></path>
                <path d="M41.5,0.5 L44.8284271,3.82842712" id="Path-56"></path>
                <path d="M34.5,0.5 L37.8284271,3.82842712" id="Path-56"></path>
                <path d="M103.5,2.5 L106.328427,5.82842712" id="Path-56"></path>
                <path d="M108.5,3.5 L110.328427,6.82842712" id="Path-56"></path>
                <path d="M112.5,4.5 L113.328427,7.82842712" id="Path-56"></path>
                <path d="M115,6 L115.5,8.5" id="Path-56"></path>
                <path d="M94.5,1.5 L97.3284271,4.82842712" id="Path-56"></path>
            </g>
            <g id="Group-4-Copy" transform="translate(1.000000, 57.000000)" sketch:type="MSShapeGroup">
                <path d="M3.5,4.5 L4.5,7.5" id="Path-56" transform="translate(4.000000, 6.000000) scale(-1, 1) translate(-4.000000, -6.000000) "></path>
                <path d="M0.5,5.5 L1.5,8.5" id="Path-56" transform="translate(1.000000, 7.000000) scale(-1, 1) translate(-1.000000, -7.000000) "></path>
                <path d="M7,3 L9,6" id="Path-56" transform="translate(8.000000, 4.500000) scale(-1, 1) translate(-8.000000, -4.500000) "></path>
                <path d="M9.5,2.5 L11.5,5.5" id="Path-56" transform="translate(10.500000, 4.000000) scale(-1, 1) translate(-10.500000, -4.000000) "></path>
                <path d="M13.5,1.5 L15.5,5.5" id="Path-56" transform="translate(14.500000, 3.500000) scale(-1, 1) translate(-14.500000, -3.500000) "></path>
                <path d="M17.5,1.5 L18.5,4.5" id="Path-56" transform="translate(18.000000, 3.000000) scale(-1, 1) translate(-18.000000, -3.000000) "></path>
                <path d="M20.5,1.5 L22.5,4.5" id="Path-56" transform="translate(21.500000, 3.000000) scale(-1, 1) translate(-21.500000, -3.000000) "></path>
                <path d="M24,1 L27,4" id="Path-56" transform="translate(25.500000, 2.500000) scale(-1, 1) translate(-25.500000, -2.500000) "></path>
                <path d="M28,1 L31,4" id="Path-56" transform="translate(29.500000, 2.500000) scale(-1, 1) translate(-29.500000, -2.500000) "></path>
                <path d="M31.5,0.5 L34.8284271,3.82842712" id="Path-56" transform="translate(33.164214, 2.164214) scale(-1, 1) translate(-33.164214, -2.164214) "></path>
                <path d="M38.5,0.5 L41.8284271,3.82842712" id="Path-56" transform="translate(40.164214, 2.164214) scale(-1, 1) translate(-40.164214, -2.164214) "></path>
                <path d="M45.5,0.5 L48.8284271,3.82842712" id="Path-56" transform="translate(47.164214, 2.164214) scale(-1, 1) translate(-47.164214, -2.164214) "></path>
                <path d="M52.5,0.5 L55.8284271,3.82842712" id="Path-56" transform="translate(54.164214, 2.164214) scale(-1, 1) translate(-54.164214, -2.164214) "></path>
                <path d="M59,0 L62.8284271,3.82842712" id="Path-56" transform="translate(60.914214, 1.914214) scale(-1, 1) translate(-60.914214, -1.914214) "></path>
                <path d="M67.5,0.5 L70.8284271,3.82842712" id="Path-56" transform="translate(69.164214, 2.164214) scale(-1, 1) translate(-69.164214, -2.164214) "></path>
                <path d="M74.5,0.5 L77.8284271,3.82842712" id="Path-56" transform="translate(76.164214, 2.164214) scale(-1, 1) translate(-76.164214, -2.164214) "></path>
                <path d="M81.5,0.5 L84.8284271,3.82842712" id="Path-56" transform="translate(83.164214, 2.164214) scale(-1, 1) translate(-83.164214, -2.164214) "></path>
                <path d="M89.5,1 L93.3284271,4.32842712" id="Path-56" transform="translate(91.500000, 3.000000) scale(-1, 1) translate(-91.500000, -3.000000) "></path>
                <path d="M94.5,1.5 L97.3284271,4.82842712" id="Path-56" transform="translate(96.000000, 3.000000) scale(-1, 1) translate(-96.000000, -3.000000) "></path>
                <path d="M99,1.5 L101.5,5" id="Path-56" transform="translate(100.250000, 3.250000) scale(-1, 1) translate(-100.250000, -3.250000) "></path>
                <path d="M84.5,0.5 L87.8284271,3.82842712" id="Path-56" transform="translate(86.000000, 2.000000) scale(-1, 1) translate(-86.000000, -2.000000) "></path>
                <path d="M77.5,0.5 L80.8284271,3.82842712" id="Path-56" transform="translate(79.000000, 2.000000) scale(-1, 1) translate(-79.000000, -2.000000) "></path>
                <path d="M70.5,0.5 L73.8284271,3.82842712" id="Path-56" transform="translate(72.000000, 2.000000) scale(-1, 1) translate(-72.000000, -2.000000) "></path>
                <path d="M62.5,0.5 L65.8284271,3.82842712" id="Path-56" transform="translate(64.000000, 2.000000) scale(-1, 1) translate(-64.000000, -2.000000) "></path>
                <path d="M55.5,0.5 L58.8284271,3.82842712" id="Path-56" transform="translate(57.000000, 2.000000) scale(-1, 1) translate(-57.000000, -2.000000) "></path>
                <path d="M48.5,0.5 L51.8284271,3.82842712" id="Path-56" transform="translate(50.000000, 2.000000) scale(-1, 1) translate(-50.000000, -2.000000) "></path>
                <path d="M41.5,0.5 L44.8284271,3.82842712" id="Path-56" transform="translate(43.000000, 2.000000) scale(-1, 1) translate(-43.000000, -2.000000) "></path>
                <path d="M34.5,0.5 L37.8284271,3.82842712" id="Path-56" transform="translate(36.000000, 2.000000) scale(-1, 1) translate(-36.000000, -2.000000) "></path>
                <path d="M103.5,2.5 L106.328427,5.82842712" id="Path-56" transform="translate(105.000000, 4.000000) scale(-1, 1) translate(-105.000000, -4.000000) "></path>
                <path d="M108.5,3.5 L110.328427,6.82842712" id="Path-56" transform="translate(109.500000, 5.000000) scale(-1, 1) translate(-109.500000, -5.000000) "></path>
                <path d="M112.5,4.5 L113.328427,7.82842712" id="Path-56" transform="translate(113.000000, 6.000000) scale(-1, 1) translate(-113.000000, -6.000000) "></path>
                <path d="M115,6 L115.5,8.5" id="Path-56" transform="translate(115.250000, 7.250000) scale(-1, 1) translate(-115.250000, -7.250000) "></path>
                <path d="M94.5,1.5 L97.3284271,4.82842712" id="Path-56" transform="translate(96.000000, 3.000000) scale(-1, 1) translate(-96.000000, -3.000000) "></path>
            </g>
            <g id="Group-4-Copy-3" transform="translate(2.000000, 36.000000)" sketch:type="MSShapeGroup">
                <path d="M3,5 L3.5,8.5" id="Path-56" transform="translate(3.500000, 7.000000) scale(-1, 1) translate(-3.500000, -7.000000) "></path>
                <path d="M1.5,6.5 L1.5,9.5" id="Path-56" transform="translate(1.500000, 8.000000) scale(-1, 1) translate(-1.500000, -8.000000) "></path>
                <path d="M6,3 L6.5,6.5" id="Path-56" transform="translate(6.500000, 5.000000) scale(-1, 1) translate(-6.500000, -5.000000) "></path>
                <path d="M9,1.5 L10.5,5" id="Path-56" transform="translate(9.750000, 3.250000) scale(-1, 1) translate(-9.750000, -3.250000) "></path>
                <path d="M12.5,1 L14,5.5" id="Path-56" transform="translate(13.250000, 3.250000) scale(-1, 1) translate(-13.250000, -3.250000) "></path>
                <path d="M16.5,0.5 L17.5,3.5" id="Path-56" transform="translate(17.000000, 2.000000) scale(-1, 1) translate(-17.000000, -2.000000) "></path>
                <path d="M19.5,0.5 L21.5,3.5" id="Path-56" transform="translate(20.500000, 2.000000) scale(-1, 1) translate(-20.500000, -2.000000) "></path>
                <path d="M23.5,0.5 L26,4" id="Path-56" transform="translate(24.500000, 2.000000) scale(-1, 1) translate(-24.500000, -2.000000) "></path>
                <path d="M27.5,0.5 L30,4" id="Path-56" transform="translate(28.500000, 2.000000) scale(-1, 1) translate(-28.500000, -2.000000) "></path>
                <path d="M30.5,0.5 L33.8284271,3.82842712" id="Path-56" transform="translate(32.164214, 2.164214) scale(-1, 1) translate(-32.164214, -2.164214) "></path>
                <path d="M37.5,0.5 L40.8284271,3.82842712" id="Path-56" transform="translate(39.164214, 2.164214) scale(-1, 1) translate(-39.164214, -2.164214) "></path>
                <path d="M44.5,0.5 L47.8284271,3.82842712" id="Path-56" transform="translate(46.164214, 2.164214) scale(-1, 1) translate(-46.164214, -2.164214) "></path>
                <path d="M51.5,0.5 L54.8284271,3.82842712" id="Path-56" transform="translate(53.164214, 2.164214) scale(-1, 1) translate(-53.164214, -2.164214) "></path>
                <path d="M58,0 L61.8284271,3.82842712" id="Path-56" transform="translate(59.914214, 1.914214) scale(-1, 1) translate(-59.914214, -1.914214) "></path>
                <path d="M65.5,0 L69,3.82842712" id="Path-56" transform="translate(67.250000, 1.914214) scale(-1, 1) translate(-67.250000, -1.914214) "></path>
                <path d="M72.5,0 L76,3.82842712" id="Path-56" transform="translate(74.250000, 1.914214) scale(-1, 1) translate(-74.250000, -1.914214) "></path>
                <path d="M79.1568543,0.5 L82.1568542,3.82842712" id="Path-56" transform="translate(80.828427, 2.500000) scale(-1, 1) translate(-80.828427, -2.500000) "></path>
                <path d="M88.5,0 L92.3284271,3.32842712" id="Path-56" transform="translate(90.500000, 2.000000) scale(-1, 1) translate(-90.500000, -2.000000) "></path>
                <path d="M98,0.5 L100.5,4" id="Path-56" transform="translate(99.250000, 2.250000) scale(-1, 1) translate(-99.250000, -2.250000) "></path>
                <path d="M83.1715729,0 L87,3.82842712" id="Path-56" transform="translate(85.085786, 1.914214) scale(-1, 1) translate(-85.085786, -1.914214) "></path>
                <path d="M76.5,0.5 L79.8284271,3.82842712" id="Path-56" transform="translate(78.000000, 2.000000) scale(-1, 1) translate(-78.000000, -2.000000) "></path>
                <path d="M69.1715729,0 L73,3.82842712" id="Path-56" transform="translate(71.085786, 1.914214) scale(-1, 1) translate(-71.085786, -1.914214) "></path>
                <path d="M61.1715729,0 L65,3.82842712" id="Path-56" transform="translate(63.085786, 1.914214) scale(-1, 1) translate(-63.085786, -1.914214) "></path>
                <path d="M54.5,0.5 L57.8284271,3.82842712" id="Path-56" transform="translate(56.000000, 2.000000) scale(-1, 1) translate(-56.000000, -2.000000) "></path>
                <path d="M47.5,0.5 L50.8284271,3.82842712" id="Path-56" transform="translate(49.000000, 2.000000) scale(-1, 1) translate(-49.000000, -2.000000) "></path>
                <path d="M40.5,0.5 L43.8284271,3.82842712" id="Path-56" transform="translate(42.000000, 2.000000) scale(-1, 1) translate(-42.000000, -2.000000) "></path>
                <path d="M33.5,0.5 L36.8284271,3.82842712" id="Path-56" transform="translate(35.000000, 2.000000) scale(-1, 1) translate(-35.000000, -2.000000) "></path>
                <path d="M102.5,1.5 L105.328427,4.82842712" id="Path-56" transform="translate(104.000000, 3.000000) scale(-1, 1) translate(-104.000000, -3.000000) "></path>
                <path d="M106.5,2.5 L108.328427,5.82842712" id="Path-56" transform="translate(107.500000, 4.000000) scale(-1, 1) translate(-107.500000, -4.000000) "></path>
                <path d="M109,4 L111,7" id="Path-56" transform="translate(110.000000, 5.500000) scale(-1, 1) translate(-110.000000, -5.500000) "></path>
                <path d="M113,6 L114.5,9" id="Path-56" transform="translate(113.750000, 7.500000) scale(-1, 1) translate(-113.750000, -7.500000) "></path>
                <path d="M93.6715729,0.5 L96.5,3.82842712" id="Path-56" transform="translate(95.085786, 2.164214) scale(-1, 1) translate(-95.085786, -2.164214) "></path>
            </g>
            <g id="Group-4-Copy-2" transform="translate(1.000000, 46.000000)" sketch:type="MSShapeGroup">
                <path d="M3,5 L6,7" id="Path-56"></path>
                <path d="M0,6 L3,8" id="Path-56"></path>
                <path d="M6,4 L9,6" id="Path-56"></path>
                <path d="M9,3 L12,5" id="Path-56"></path>
                <path d="M13,2 L16,4" id="Path-56"></path>
                <path d="M17.5,1.5 L20,4" id="Path-56"></path>
                <path d="M20.5,1.5 L23,4" id="Path-56"></path>
                <path d="M24,1 L27,4" id="Path-56"></path>
                <path d="M28,1 L31,4" id="Path-56"></path>
                <path d="M31.5,0.5 L34.8284271,3.82842712" id="Path-56"></path>
                <path d="M38.5,0.5 L41.8284271,3.82842712" id="Path-56"></path>
                <path d="M45.5,0.5 L48.8284271,3.82842712" id="Path-56"></path>
                <path d="M52.5,0.5 L55.8284271,3.82842712" id="Path-56"></path>
                <path d="M59,0 L62.8284271,3.82842712" id="Path-56"></path>
                <path d="M67.5,0.5 L70.8284271,3.82842712" id="Path-56"></path>
                <path d="M74.5,0.5 L77.8284271,3.82842712" id="Path-56"></path>
                <path d="M81.5,0.5 L84.8284271,3.82842712" id="Path-56"></path>
                <path d="M89.5,1 L93.3284271,4.32842712" id="Path-56"></path>
                <path d="M94.5,1.5 L97.3284271,4.82842712" id="Path-56"></path>
                <path d="M98.5,1.5 L101.328427,4.82842712" id="Path-56"></path>
                <path d="M84.5,0.5 L87.8284271,3.82842712" id="Path-56"></path>
                <path d="M77.5,0.5 L80.8284271,3.82842712" id="Path-56"></path>
                <path d="M70.5,0.5 L73.8284271,3.82842712" id="Path-56"></path>
                <path d="M62.5,0.5 L65.8284271,3.82842712" id="Path-56"></path>
                <path d="M55.5,0.5 L58.8284271,3.82842712" id="Path-56"></path>
                <path d="M48.5,0.5 L51.8284271,3.82842712" id="Path-56"></path>
                <path d="M41.5,0.5 L44.8284271,3.82842712" id="Path-56"></path>
                <path d="M34.5,0.5 L37.8284271,3.82842712" id="Path-56"></path>
                <path d="M103.5,2.5 L106.328427,5.82842712" id="Path-56"></path>
                <path d="M108.5,3.5 L110.328427,6.82842712" id="Path-56"></path>
                <path d="M112.5,4.5 L113.328427,7.82842712" id="Path-56"></path>
                <path d="M115,6 L115.5,8.5" id="Path-56"></path>
                <path d="M94.5,1.5 L97.3284271,4.82842712" id="Path-56"></path>
            </g>
            <path d="M0,74.9999999 C0,74.9999999 6,70.0000001 25,68.9999999 C44,67.9999998 83,67.9999999 92,68.9999999 C101,69.9999999 112,70.0000003 119,75.9999999" id="Path-53" sketch:type="MSShapeGroup"></path>
            <path d="M0,52.9999999 C0,52.9999999 6,48.0000001 25,46.9999999 C44,45.9999998 83,45.9999999 92,46.9999999 C101,47.9999999 112,48.0000003 119,53.9999999" id="Path-53" sketch:type="MSShapeGroup"></path>
            <path d="M0,63.9999999 C0,63.9999999 6,59.0000001 25,57.9999999 C44,56.9999998 83,56.9999999 92,57.9999999 C101,58.9999999 112,59.0000003 119,64.9999999" id="Path-53" sketch:type="MSShapeGroup"></path>
        </g>
    </g>
</svg>