<?xml version="1.0" encoding="UTF-8" standalone="no"?>
<svg width="181px" height="393px" viewBox="0 0 181 393" version="1.1" xmlns="http://www.w3.org/2000/svg" xmlns:xlink="http://www.w3.org/1999/xlink" xmlns:sketch="http://www.bohemiancoding.com/sketch/ns">
    <!-- Generator: Sketch 3.1 (8751) - http://www.bohemiancoding.com/sketch -->
    <title>Slice 2</title>
    <desc>Created with Sketch.</desc>
    <defs>
        <path id="path-1" d="M0,385 L173.814,385 L173.814,-0.298 L0,-0.298"></path>
    </defs>
    <g id="Page-1" stroke="none" stroke-width="1" fill="none" fill-rule="evenodd" sketch:type="MSPage">
        <g id="gulp" sketch:type="MSLayerGroup" transform="translate(3.000000, 2.000000)">
            <path d="M86.96,303.74 C64.386,303.74 46.943,300.348 38.555,298.327 C32.819,296.945 28.213,295.515 24.714,294.046 L35.901,313.159 L40.277,372.878 C40.277,379.573 61.545,385 87.78,385 C114.015,385 135.283,379.573 135.283,372.878 L138.748,312.509 L149.333,293.991 C145.82,295.479 141.172,296.928 135.364,298.327 C126.976,300.348 109.533,303.74 86.96,303.74" id="Fill-1" fill="#D94648" sketch:type="MSShapeGroup"></path>
            <path d="M87.78,113 C64.421,113 42.432,111.726 25.864,109.411 C17.657,108.265 11.164,106.914 6.565,105.395 C5.468,105.032 3.609,104.413 1.82,103.427 L20.569,286.855 C22.056,290.582 50.05,299.74 86.96,299.74 C123.887,299.74 151.892,290.573 153.354,286.85 L173.745,103.424 C171.955,104.412 170.093,105.032 168.995,105.395 C164.397,106.914 157.904,108.265 149.697,109.411 C133.128,111.726 111.139,113 87.78,113 Z" id="Fill-2" fill="#D94648" sketch:type="MSShapeGroup"></path>
            <path d="M112.112,103.313 C106.402,103.313 101.773,102.052 101.773,100.497 C101.773,98.942 106.402,97.681 112.112,97.681 C117.823,97.681 122.452,98.942 122.452,100.497 C122.452,102.052 117.823,103.313 112.112,103.313 L112.112,103.313 Z M87.78,84.756 C39.853,84.756 1,90.183 1,96.878 C1,103.573 39.853,109 87.78,109 C135.708,109 174.56,103.573 174.56,96.878 C174.56,90.183 135.708,84.756 87.78,84.756 L87.78,84.756 Z" id="Fill-3" fill="#D94648" sketch:type="MSShapeGroup"></path>
            <g id="Group-7">
                <mask id="mask-2" sketch:name="Clip 5" fill="white">
                    <use xlink:href="#path-1"></use>
                </mask>
                <g id="Clip-5"></g>
                <path d="M119.435,99.503 C119.435,100.509 115.709,101.325 111.113,101.325 C106.516,101.325 102.79,100.509 102.79,99.503 C102.79,98.496 106.516,97.681 111.113,97.681 C115.709,97.681 119.435,98.496 119.435,99.503" id="Fill-4" fill="#D94648" sketch:type="MSShapeGroup" mask="url(#mask-2)"></path>
                <path d="M173.58,9.736 C172.652,10.786 169.393,9.403 166.312,6.656 C163.231,3.909 161.13,1.117 162.115,0.12 C163.149,-0.926 166.476,0.005 169.557,2.752 C172.639,5.499 174.495,8.701 173.58,9.736" id="Fill-6" fill="#D94648" sketch:type="MSShapeGroup" mask="url(#mask-2)"></path>
            </g>
            <path d="M174.58,9.736 L163.115,0.12 L116.965,48.682 L103.803,99.503 L120.435,99.503 L131.307,55.425 L174.58,9.736" id="Fill-8" fill="#D94648" sketch:type="MSShapeGroup"></path>
        </g>
    </g>
</svg>