<?xml version="1.0" encoding="UTF-8" standalone="no"?>
<svg width="37px" height="17px" viewBox="0 0 37 17" version="1.1" xmlns="http://www.w3.org/2000/svg" xmlns:xlink="http://www.w3.org/1999/xlink" xmlns:sketch="http://www.bohemiancoding.com/sketch/ns">
    <!-- Generator: Sketch 3.1 (8751) - http://www.bohemiancoding.com/sketch -->
    <title>Vector 1</title>
    <desc>Created with Sketch.</desc>
    <defs></defs>
    <g id="Page-1" stroke="none" stroke-width="1" fill="none" fill-rule="evenodd" sketch:type="MSPage">
        <path d="M92.6298828,12.7841797 C91.3336524,12.7841797 90.1842498,12.651694 89.1816406,12.3867188 C88.1790314,12.1217435 87.2749064,11.7779969 86.4692383,11.3554688 C85.6635702,10.9329406 84.9331087,10.4602891 84.277832,9.9375 C83.6225553,9.41471093 83.001305,8.8919297 82.4140625,8.36914062 C81.8483045,7.87499753 81.287926,7.4059267 80.7329102,6.96191406 C80.1778944,6.51790143 79.5799186,6.1258155 78.9389648,5.78564453 C78.2980111,5.44547356 77.5872435,5.17692156 76.8066406,4.97998047 C76.0260378,4.78303938 75.123703,4.68457031 74.0996094,4.68457031 C73.0826772,4.68457031 72.1821328,4.78303938 71.3979492,4.97998047 C70.6137656,5.17692156 69.9012076,5.44547356 69.2602539,5.78564453 C68.6193002,6.1258155 68.0231147,6.51790143 67.4716797,6.96191406 C66.9202446,7.4059267 66.3616565,7.87499753 65.7958984,8.36914062 C65.2014944,8.8919297 64.5784538,9.41471093 63.9267578,9.9375 C63.2750618,10.4602891 62.5463907,10.9329406 61.7407227,11.3554688 C60.9350546,11.7779969 60.0291391,12.1217435 59.0229492,12.3867188 C58.0167593,12.651694 56.8691471,12.7841797 55.5800781,12.7841797 C54.2838477,12.7841797 53.1326548,12.651694 52.1264648,12.3867188 C51.1202749,12.1217435 50.2143595,11.7779969 49.4086914,11.3554688 C48.6030233,10.9329406 47.8743522,10.4602891 47.2226562,9.9375 C46.5709603,9.41471093 45.9515003,8.8919297 45.3642578,8.36914062 C44.7913383,7.87499753 44.2291694,7.4059267 43.6777344,6.96191406 C43.1262993,6.51790143 42.5301139,6.1258155 41.8891602,5.78564453 C41.2482064,5.44547356 40.5374388,5.17692156 39.7568359,4.97998047 C38.9762331,4.78303938 38.0738983,4.68457031 37.0498047,4.68457031 C36.025711,4.68457031 35.1233763,4.78303938 34.3427734,4.97998047 C33.5621706,5.17692156 32.8514029,5.44547356 32.2104492,5.78564453 C31.5694955,6.1258155 30.9715197,6.51790143 30.4165039,6.96191406 C29.8614881,7.4059267 29.3011096,7.87499753 28.7353516,8.36914062 C28.148109,8.8919297 27.5286491,9.41471093 26.8769531,9.9375 C26.2252572,10.4602891 25.4965861,10.9329406 24.690918,11.3554688 C23.8852499,11.7779969 22.9793345,12.1217435 21.9731445,12.3867188 C20.9669546,12.651694 19.8157617,12.7841797 18.5195312,12.7841797 C17.2304623,12.7841797 16.0828501,12.651694 15.0766602,12.3867188 C14.0704702,12.1217435 13.1645548,11.7779969 12.3588867,11.3554688 C11.5532186,10.9329406 10.8245475,10.4602891 10.1728516,9.9375 C9.5211556,9.41471093 8.89811495,8.8919297 8.30371094,8.36914062 C7.7379529,7.87499753 7.17936474,7.4059267 6.62792969,6.96191406 C6.07649464,6.51790143 5.48030919,6.1258155 4.83935547,5.78564453 C4.19840174,5.44547356 3.48763411,5.17692156 2.70703125,4.97998047 C1.92642839,4.78303938 1.02409366,4.68457031 0,4.68457031 L0,1.78417969 C1.29623044,1.78417969 2.44563301,1.91666534 3.44824219,2.18164062 C4.45085137,2.44661591 5.35497644,2.79036247 6.16064453,3.21289062 C6.96631262,3.63541878 7.69498372,4.10986065 8.34667969,4.63623047 C8.99837565,5.16260029 9.6214163,5.68359117 10.2158203,6.19921875 C10.7815783,6.69336185 11.3401665,7.16422302 11.8916016,7.61181641 C12.4430366,8.05940979 13.0410124,8.45149571 13.6855469,8.78808594 C14.3300813,9.12467616 15.0426393,9.39322816 15.8232422,9.59375 C16.603845,9.79427184 17.5025991,9.89453125 18.5195312,9.89453125 C19.5436249,9.89453125 20.4459596,9.79427184 21.2265625,9.59375 C22.0071654,9.39322816 22.717933,9.12467616 23.3588867,8.78808594 C23.9998404,8.45149571 24.5978162,8.05940979 25.152832,7.61181641 C25.7078478,7.16422302 26.2682263,6.69336185 26.8339844,6.19921875 C27.4212269,5.68359117 28.0424772,5.16260029 28.6977539,4.63623047 C29.3530306,4.10986065 30.0834921,3.63541878 30.8891602,3.21289062 C31.6948282,2.79036247 32.5989533,2.44661591 33.6015625,2.18164062 C34.6041717,1.91666534 35.7535742,1.78417969 37.0498047,1.78417969 C38.3460351,1.78417969 39.4954377,1.91666534 40.4980469,2.18164062 C41.5006561,2.44661591 42.4047811,2.79036247 43.2104492,3.21289062 C44.0161173,3.63541878 44.7465788,4.10986065 45.4018555,4.63623047 C46.0571322,5.16260029 46.6783825,5.68359117 47.265625,6.19921875 C47.831383,6.69336185 48.3917615,7.16422302 48.9467773,7.61181641 C49.5017931,8.05940979 50.0997689,8.45149571 50.7407227,8.78808594 C51.3816764,9.12467616 52.092444,9.39322816 52.8730469,9.59375 C53.6536497,9.79427184 54.5559845,9.89453125 55.5800781,9.89453125 C56.5970103,9.89453125 57.4957643,9.79427184 58.2763672,9.59375 C59.05697,9.39322816 59.769528,9.12467616 60.4140625,8.78808594 C61.058597,8.45149571 61.6565728,8.05940979 62.2080078,7.61181641 C62.7594429,7.16422302 63.318031,6.69336185 63.8837891,6.19921875 C64.4781931,5.68359117 65.1012337,5.16260029 65.7529297,4.63623047 C66.4046257,4.10986065 67.1332968,3.63541878 67.9389648,3.21289062 C68.7446329,2.79036247 69.6505484,2.44661591 70.6567383,2.18164062 C71.6629282,1.91666534 72.8105404,1.78417969 74.0996094,1.78417969 C75.3958398,1.78417969 76.5452424,1.91666534 77.5478516,2.18164062 C78.5504607,2.44661591 79.4563762,2.79036247 80.265625,3.21289062 C81.0748738,3.63541878 81.8053353,4.10986065 82.4570312,4.63623047 C83.1087272,5.16260029 83.7281872,5.68359117 84.3154297,6.19921875 C84.8811877,6.69336185 85.4415662,7.16422302 85.996582,7.61181641 C86.5515978,8.05940979 87.1495736,8.45149571 87.7905273,8.78808594 C88.4314811,9.12467616 89.1422487,9.39322816 89.9228516,9.59375 C90.7034544,9.79427184 91.6057892,9.89453125 92.6298828,9.89453125 L92.6298828,12.7841797 Z" id="" fill="#222222" sketch:type="MSShapeGroup"></path>
    </g>
</svg>
