<?xml version="1.0" encoding="UTF-8" standalone="no"?>
<svg width="77px" height="72px" viewBox="0 0 77 72" version="1.1" xmlns="http://www.w3.org/2000/svg" xmlns:xlink="http://www.w3.org/1999/xlink" xmlns:sketch="http://www.bohemiancoding.com/sketch/ns">
    <!-- Generator: Sketch 3.5.1 (25234) - http://www.bohemiancoding.com/sketch -->
    <title>Slice 1</title>
    <desc>Created with Sketch.</desc>
    <defs></defs>
    <g id="Page-1" stroke="none" stroke-width="1" fill="none" fill-rule="evenodd" sketch:type="MSPage">
        <g id="Tortilla" sketch:type="MSLayerGroup" transform="translate(-0.990486, 4.174480)">
            <path d="M25.383,64.923 C19.236,64.923 13.404,64.896 11.126,34.101 C8.029,-7.881 63.226,7.362 63.226,31.632 C63.225,44.855 25.379,64.922 25.379,64.922" id="Shape" fill="#D3976E" sketch:type="MSShapeGroup"></path>
            <path d="M12.603,34.1 C11.276,16.124 20.643,8.67 31.783,7.89 C31.771,7.868 31.773,7.846 31.767,7.827 C20.002,8.035 9.737,15.339 11.121,34.097 C13.228,62.617 18.464,64.903 24.023,64.903 C18.881,64.017 14.519,60.105 12.598,34.097" id="Shape" opacity="0.5" fill="#FFFFFF" sketch:type="MSShapeGroup"></path>
            <g id="Burger" transform="translate(36.350045, 34.844869) rotate(-218.000000) translate(-36.350045, -34.844869) translate(6.850045, 14.344869)" sketch:type="MSShapeGroup">
                <path d="M1.27171217,21.3895993 C1.27171217,15.3292128 6.74964253,6.81244087 28.9688415,6.81244087 C51.1880405,6.81244087 56.664113,15.3292128 56.664113,21.3895993 C56.664113,32.4628679 48.8796367,40.563324 28.9688415,40.563324 C9.05711735,40.563324 1.27171217,32.4653096 1.27171217,21.3895993" id="Shape" fill="#826046"></path>
                <path d="M1.88573828,15.0044621 C1.88573828,8.94285473 7.24197814,0.427303639 28.9734862,0.427303639 C50.7040653,0.427303639 56.0612341,8.9440756 56.0612341,15.0044621 C56.0612341,26.0777307 48.4486108,34.1794077 28.9734862,34.1794077 C9.49836153,34.1794077 1.88573828,26.0789515 1.88573828,15.0044621" id="Shape" fill="#68472C"></path>
                <path d="M1.9999973,7.1310873 C3.34509534,3.44406733 6.74313999,3.23041551 17.9312345,9.50689553 C29.1156133,15.7833756 31.2354432,19.0870431 29.8912741,22.7789466 C27.4323828,29.5315649 20.9001111,34.4992749 10.8750434,28.8735173 C0.849975629,23.2477597 -0.460751816,13.8837057 1.9999973,7.1310873" id="Shape" fill="#EF4D3C"></path>
                <path d="M2.94751111,2.91909429 C4.29260916,-0.767925683 7.6906538,-0.98279837 18.8787483,5.29490252 C30.0631271,11.5713825 32.182957,14.8750501 30.837859,18.5669535 C28.3780388,25.318351 21.8476249,30.2885028 11.8216282,24.6615243 C1.79656051,19.0369876 0.486761999,9.67049178 2.94751111,2.91909429" id="Shape" fill="#D33B23"></path>
                <path d="M26.2424169,18.9515268 C25.5057714,15.0044621 28.1002872,12.2782649 40.0640425,8.83786012 C52.025011,5.39745539 55.3245885,6.42664673 56.0612341,10.3749324 C57.4100479,17.5927013 54.6501816,26.4598622 43.9293415,29.5437736 C33.2112882,32.627685 27.5893729,26.1705166 26.2424169,18.9515268" id="Shape" fill="#EF4D3C"></path>
                <path d="M25.0812481,14.967836 C24.3436736,11.0207713 26.9391183,8.2933532 38.9038025,4.85416934 C50.8619842,1.41376461 54.1624907,2.44295595 54.9000652,6.39124157 C56.24795,13.6090105 53.4890127,22.4761714 42.7681726,25.5600828 C32.0501193,28.6415525 26.427275,22.1856049 25.0812481,14.967836" id="Shape" fill="#D33B23"></path>
                <path d="M8.06129891,14.5576245 L26.7050266,37.9860726 L44.8304086,14.5576245 L8.06129891,14.5576245 Z" id="Shape" fill="#FFE62E"></path>
                <path d="M56.8880376,8.21378985 C56.8880376,8.21378985 57.6832061,12.3561934 56.8703878,13.548981 C56.1467474,14.6123566 53.7649578,13.4598577 52.7830733,14.4072509 C51.8987271,15.2594164 52.1179558,18.544771 51.0487515,19.2870584 C50.067796,19.9658608 48.0687276,17.9245703 46.9502898,18.498378 C45.9098824,19.033118 45.5457399,22.305043 44.4003629,22.7408927 C43.3190824,23.1498833 41.6516439,20.655651 40.489546,20.968193 C39.3813265,21.2648639 38.6130971,24.4195856 37.4454257,24.6210287 C36.3186274,24.8139258 34.9456613,22.0315687 33.7696294,22.1292381 C32.6326129,22.2244657 31.5466877,25.2168121 30.3725137,25.2168121 C29.1992687,25.2168121 28.1133435,22.2244657 26.976327,22.1292381 C25.801224,22.0315687 24.4264001,24.8151467 23.3005307,24.6210287 C22.1291435,24.4195856 21.3646299,21.2648639 20.2564103,20.968193 C19.0943125,20.655651 17.4240872,23.1498833 16.3428067,22.7396718 C15.1974297,22.3062639 14.8323582,19.033118 13.7919509,18.4971571 C12.673513,17.9221285 10.6744447,19.9634191 9.69348918,19.2846167 C8.62242699,18.5423292 8.84258461,15.2557538 7.95823839,14.4035883 C6.97356717,13.4561951 4.59363541,14.6074732 3.86906602,13.5440975 C3.05717673,12.3513099 3.85513199,8.21134812 3.85513199,8.21134812 L56.8880376,8.21378985" id="Shape" fill="#8CC63E" transform="translate(30.370426, 16.714080) rotate(-11.000000) translate(-30.370426, -16.714080) "></path>
            </g>
            <path d="M25.383,64.923 C25.383,64.923 29.566,64.923 32.019,48.702 C34.499,32.301 45.503,10.172 62.644,10.172 C68.587,10.172 72.623,14.116 70.366,35.342 C69.966,39.08 30.603,64.922 25.383,64.922" id="Shape" fill="#FBBF67" sketch:type="MSShapeGroup"></path>
            <path d="M62.664,9.153 C41.013,9.153 34.276,33.763 32.018,48.703 C29.565,64.923 22.914,64.873 22.914,64.873 C22.914,64.873 27.091,65.4 28.329,64.332 C30.1,62.806 32.19,58.967 33.495,50.352 C35.755,35.419 43.845,10.691 63.231,10.691 C68.686,10.691 70.576,18.613 70.576,18.613 C70.576,18.613 69.605,9.157 62.664,9.157" id="Shape" fill="#FDDFB3" sketch:type="MSShapeGroup"></path>
            <g id="Group" transform="translate(48.000000, 17.000000)" fill="#D3976E" sketch:type="MSShapeGroup">
                <path d="M0.17,26.835 L1.17,25.764 L2.17,26.836 L1.17,27.907 L0.17,26.835 Z" id="Shape"></path>
                <path d="M1.481,12.783 L2.481,11.711 L3.48,12.783 L2.48,13.854 L1.481,12.783 Z" id="Shape"></path>
                <path d="M17.11,12.783 L18.11,11.712 L19.11,12.783 L18.11,13.854 L17.11,12.783 Z" id="Shape"></path>
                <path d="M15.23,1.771 L16.23,0.701 L17.23,1.771 L16.23,2.842 L15.23,1.771 Z" id="Shape"></path>
            </g>
            <g id="Group" transform="translate(39.000000, 20.000000)" fill="#FDDFB3" sketch:type="MSShapeGroup">
                <path d="M18.34,16.36 L17.34,17.431 L18.34,18.501 L19.34,17.431 L18.34,16.36" id="Shape"></path>
                <path d="M20.655,3.757 L19.657,4.829 L20.655,5.899 L21.655,4.829 L20.655,3.757" id="Shape"></path>
                <path d="M12.969,0.03 L11.97,1.1 L12.969,2.17 L13.969,1.1 L12.969,0.03" id="Shape"></path>
                <path d="M3.537,15.802 L2.537,16.874 L3.537,17.943 L4.537,16.874 L3.537,15.802" id="Shape"></path>
                <path d="M1.23,29.39 L0.23,30.46 L1.23,31.531 L2.23,30.46 L1.23,29.39" id="Shape"></path>
            </g>
        </g>
    </g>
</svg>