<?xml version="1.0" encoding="UTF-8" standalone="no"?>
<svg width="1665px" height="919px" viewBox="0 0 1165 919" version="1.1" xmlns="http://www.w3.org/2000/svg" xmlns:xlink="http://www.w3.org/1999/xlink" xmlns:sketch="http://www.bohemiancoding.com/sketch/ns">
    <!-- Generator: Sketch 3.5.1 (25234) - http://www.bohemiancoding.com/sketch -->
    <title>yamana</title>
    <desc>Created with Sketch.</desc>
    <defs></defs>
    <g id="Page-1" stroke="none" stroke-width="1" fill="none" fill-rule="evenodd" sketch:type="MSPage">
        <g id="yamana" sketch:type="MSLayerGroup" stroke="#231F20" stroke-width="14">
            <path d="M1127.18,905.393 L37.677,905.393 C25.153,905.394 15,894.731 15,881.576 L15,35.009 C15,21.855 25.153,11.192 37.677,11.192 L1127.18,11.192 C1139.704,11.192 1149.858,21.856 1149.858,35.009 L1149.858,881.576 C1149.858,894.731 1139.705,905.393 1127.18,905.393 Z" id="Shape" sketch:type="MSShapeGroup"></path>
            <path d="M15.5,86.287 L1149.858,86.287" id="Shape" sketch:type="MSShapeGroup"></path>
        </g>
        <g id="Group" sketch:type="MSLayerGroup" transform="translate(312.000000, 297.000000)" fill="#0F0F0F">
            <path d="M541.961941,171.649251 C541.978636,176.9217 538.885166,181.94209 533.726429,184.131844 L369.079569,254.020289 C362.212079,256.935366 354.28388,253.736336 351.370009,246.871687 C348.456779,240.008546 351.664364,232.080875 358.529829,229.166658 L494.032349,171.649251 L358.529829,114.131844 C351.664364,111.217627 348.456779,103.289956 351.370009,96.4268155 C354.28388,89.5621658 362.212079,86.3631363 369.079569,89.2782127 L533.726429,159.166658 C538.885166,161.356412 541.978636,166.376802 541.961941,171.649251 Z M0.294316795,171.649251 C0.277621721,176.9217 3.37109147,181.94209 8.52982855,184.131844 L173.176689,254.020289 C180.044178,256.935366 187.972378,253.736336 190.886249,246.871687 C193.799479,240.008546 190.591894,232.080875 183.726429,229.166658 L48.223909,171.649251 L183.726429,114.131844 C190.591894,111.217627 193.799479,103.289956 190.886249,96.4268155 C187.972378,89.5621658 180.044178,86.3631363 173.176689,89.2782127 L8.52982855,159.166658 C3.37109147,161.356412 0.277621721,166.376802 0.294316795,171.649251 Z M235.87089,324.545242 C228.577974,322.995085 223.921657,315.830548 225.47315,308.531347 L288.612755,11.4828627 C290.163158,4.18878992 297.330481,-0.46791453 304.625,1.08258347 C311.917916,2.63274062 316.574233,9.79727735 315.02274,17.0964783 L251.883135,314.144962 C250.332732,321.439035 243.165409,326.09574 235.87089,324.545242 Z" id="Rectangle-1" sketch:type="MSShapeGroup"></path>
        </g>
    </g>
</svg>
