<?xml version="1.0" encoding="UTF-8" standalone="no"?>
<svg width="924px" height="1193px" viewBox="0 0 924 1193" version="1.1" xmlns="http://www.w3.org/2000/svg" xmlns:xlink="http://www.w3.org/1999/xlink" xmlns:sketch="http://www.bohemiancoding.com/sketch/ns">
    <!-- Generator: Sketch 3.5.1 (25234) - http://www.bohemiancoding.com/sketch -->
    <title>Slice 1</title>
    <desc>Created with Sketch.</desc>
    <defs>
        <path d="M491,111.869357 L491,0 L0,0 L0,1022 L284.500656,1022 L284.500656,214.376868 C284.500656,124.397986 338.538868,113.092128 491,111.869357 Z" id="path-1"></path>
        <path d="M244.589248,0 L0,0 L0,707 L235.500656,707 L235.500656,50.3768677 C235.500656,29.7118468 238.350962,13.1965225 244.589248,-7.63833441e-14 Z" id="path-3"></path>
    </defs>
    <g id="Page-1" stroke="none" stroke-width="1" fill="none" fill-rule="evenodd" sketch:type="MSPage">
        <g id="Uniaden-connect" sketch:type="MSLayerGroup" transform="translate(43.000000, 11.000000)">
            <g id="iphone5">
                <mask id="mask-2" sketch:name="Mask" fill="white">
                    <use xlink:href="#path-1"></use>
                </mask>
                <use id="Mask" sketch:type="MSShapeGroup" xlink:href="#path-1"></use>
                <g mask="url(#mask-2)" stroke="#0F0F0F" stroke-width="6" sketch:type="MSShapeGroup">
                    <g transform="translate(5.000000, 13.000000)">
                        <rect id="mic" x="199" y="86" width="90" height="18" rx="10"></rect>
                        <rect id="iphone-body" x="8" y="8" width="471" height="986" rx="73"></rect>
                        <circle id="home-button" cx="244" cy="919" r="45"></circle>
                        <rect id="home-button-icon" x="227" y="902" width="34" height="34" rx="6"></rect>
                        <rect id="mute" x="0" y="146" width="8" height="46"></rect>
                        <rect id="power-toggle" transform="translate(364.000000, 4.000000) rotate(90.000000) translate(-364.000000, -4.000000) " x="360" y="-34" width="8" height="76"></rect>
                        <rect id="screen" x="44" y="151" width="398" height="701"></rect>
                        <rect id="volume-up" x="0" y="232" width="8" height="30"></rect>
                        <rect id="volume-down" x="0" y="305" width="8" height="30"></rect>
                    </g>
                </g>
            </g>
            <g id="Iphone" transform="translate(49.000000, 164.000000)">
                <mask id="mask-4" sketch:name="Mask" fill="white">
                    <use xlink:href="#path-3"></use>
                </mask>
                <use id="Mask" sketch:type="MSShapeGroup" xlink:href="#path-3"></use>
                <g mask="url(#mask-4)" id="Lines">
                    <g transform="translate(-1.000000, 0.000000)">
                        <g transform="translate(0.000000, 29.000000)">
                            <g id="List" transform="translate(1.000000, 63.000000)" sketch:type="MSShapeGroup">
                                <g id="Companies" transform="translate(0.000000, 57.000000)">
                                    <g id="Company" transform="translate(18.000000, 472.000000)">
                                        <g id="Areas" transform="translate(2.000000, 38.000000)" stroke="#0F0F0F" stroke-width="10">
                                            <path d="M168.28038,5 L218.694262,5" id="Path-25"></path>
                                            <path d="M112.28038,5 L162.694262,5" id="Path-25"></path>
                                        </g>
                                        <rect id="Rectangle-32" fill="#0F0F0F" x="0" y="0" width="102" height="17"></rect>
                                    </g>
                                    <g id="Company" transform="translate(0.000000, 383.000000)">
                                        <g id="Areas" transform="translate(20.000000, 38.000000)" stroke="#0F0F0F" stroke-width="10">
                                            <path d="M168.28038,5 L218.694262,5" id="Path-25"></path>
                                            <path d="M112.28038,5 L162.694262,5" id="Path-25"></path>
                                            <path d="M56.2803802,5 L106.694262,5" id="Path-25"></path>
                                        </g>
                                        <rect id="Rectangle-32" fill="#0F0F0F" x="18" y="0" width="64" height="17"></rect>
                                        <path d="M0.932682141,69 L396.954737,69" id="Divider" stroke="#0F0F0F" stroke-width="6"></path>
                                    </g>
                                    <g id="Company" transform="translate(0.000000, 293.000000)">
                                        <g id="Areas" transform="translate(20.000000, 38.000000)" stroke="#0F0F0F" stroke-width="10">
                                            <path d="M168.28038,5 L218.694262,5" id="Path-25"></path>
                                            <path d="M112.28038,5 L162.694262,5" id="Path-25"></path>
                                            <path d="M0.280380217,5 L50.6942618,5" id="Path-25"></path>
                                        </g>
                                        <rect id="Rectangle-32" fill="#0F0F0F" x="18" y="0" width="164" height="17"></rect>
                                        <path d="M0.932682141,69 L396.954737,69" id="Divider" stroke="#0F0F0F" stroke-width="6"></path>
                                    </g>
                                    <g id="Company" transform="translate(0.000000, 180.000000)">
                                        <g id="Areas" transform="translate(20.000000, 62.000000)" stroke="#0F0F0F" stroke-width="10">
                                            <path d="M225.28038,5 L275.694262,5" id="Path-25"></path>
                                            <path d="M168.28038,5 L218.694262,5" id="Path-25"></path>
                                            <path d="M112.28038,5 L162.694262,5" id="Path-25"></path>
                                            <path d="M56.2803802,5 L106.694262,5" id="Path-25"></path>
                                            <path d="M0.280380217,5 L50.6942618,5" id="Path-25"></path>
                                        </g>
                                        <rect id="Rectangle-32" fill="#0F0F0F" x="18" y="0" width="151" height="17"></rect>
                                        <path d="M0.932682141,93 L396.954737,93" id="Divider" stroke="#0F0F0F" stroke-width="6"></path>
                                    </g>
                                    <g id="Company" transform="translate(0.000000, 90.000000)">
                                        <g id="Areas" transform="translate(20.000000, 38.000000)" stroke="#0F0F0F" stroke-width="10">
                                            <path d="M225.28038,5 L275.694262,5" id="Path-25"></path>
                                            <path d="M168.28038,5 L218.694262,5" id="Path-25"></path>
                                            <path d="M112.28038,5 L162.694262,5" id="Path-25"></path>
                                            <path d="M0.280380217,5 L50.6942618,5" id="Path-25"></path>
                                        </g>
                                        <rect id="Rectangle-32" fill="#0F0F0F" x="18" y="0" width="40" height="17"></rect>
                                        <path d="M0.932682141,69 L396.954737,69" id="Divider" stroke="#0F0F0F" stroke-width="6"></path>
                                    </g>
                                    <g id="Company">
                                        <g id="Areas" transform="translate(20.000000, 38.000000)" stroke="#0F0F0F" stroke-width="10">
                                            <path d="M225.28038,5 L275.694262,5" id="Path-25"></path>
                                            <path d="M168.28038,5 L218.694262,5" id="Path-25"></path>
                                            <path d="M112.28038,5 L162.694262,5" id="Path-25"></path>
                                            <path d="M0.280380217,5 L50.6942618,5" id="Path-25"></path>
                                        </g>
                                        <rect id="Rectangle-32" fill="#0F0F0F" x="18" y="0" width="187" height="17"></rect>
                                        <path d="M0.932682141,69 L396.954737,69" id="Divider" stroke="#0F0F0F" stroke-width="6"></path>
                                    </g>
                                </g>
                                <g id="Header" stroke="#0F0F0F" stroke-width="6">
                                    <path d="M0.202212795,36 L398.529627,36" id="Path-61"></path>
                                </g>
                            </g>
                            <g id="Header" sketch:type="MSShapeGroup">
                                <g id="Hamburger" transform="translate(19.332613, 8.901639)" stroke="#0F0F0F" stroke-width="6">
                                    <path d="M1.63928001,24.704918 L31.7544993,24.7049181" id="Path-16"></path>
                                    <path d="M1.63928001,13.704918 L31.7544993,13.7049181" id="Path-16"></path>
                                    <path d="M1.63928001,3.70491803 L31.7544993,3.70491815" id="Path-16"></path>
                                </g>
                                <path d="M3.00000011,51.704918 L397.140387,51.704918" id="Divider" stroke="#0F0F0F" stroke-width="6"></path>
                                <rect id="Rectangle-38" fill="#0F0F0F" x="139" y="12" width="97" height="18"></rect>
                            </g>
                        </g>
                    </g>
                </g>
            </g>
            <g id="Nexus" transform="translate(275.000000, 106.000000)">
                <g id="Device" stroke="#0F0F0F" stroke-width="6" sketch:type="MSShapeGroup">
                    <path d="M334.689036,77.7234422 C334.689036,81.850187 331.314155,85.2273745 327.190229,85.2273745 L217.837961,85.2273745 C213.71125,85.2273745 210.336369,81.850187 210.336369,77.7234422 C210.336369,73.5966974 213.71125,70.2195099 217.837961,70.2195099 L327.190229,70.2195099 C331.314155,70.2195099 334.689036,73.5966974 334.689036,77.7234422" id="Fill-1"></path>
                    <path d="M535.514748,952.395507 C535.514748,1004.01382 513.863589,1033.89928 465.308138,1049.29712 C418.578143,1064.11242 350.092435,1064.11242 277.591288,1064.11242 L267.424116,1064.11242 C102.697847,1064.11242 9.50065613,1058.92567 9.50065613,952.395507 L9.50065613,108.376868 C9.50065613,10.7050843 73.1740533,5.73397559 257.290854,5.73397559 L287.724551,5.73397559 C471.841351,5.73397559 535.514748,10.7050843 535.514748,108.376868 L535.514748,952.395507 L535.514748,952.395507 Z" id="Path"></path>
                </g>
                <g id="Workarea" transform="translate(42.196721, 135.669856)"></g>
                <g id="Elements" transform="translate(42.196721, 135.669856)"></g>
            </g>
            <g id="Android" transform="translate(316.000000, 240.000000)">
                <g id="Lines">
                    <rect id="Rectangle-23" stroke="#0F0F0F" stroke-width="6" sketch:type="MSShapeGroup" x="0" y="0" width="462" height="822"></rect>
                    <g id="navbar" transform="translate(1.196721, 759.373206)" stroke="#0F0F0F" stroke-width="6" sketch:type="MSShapeGroup">
                        <rect id="recent" x="349.081967" y="20.4784689" width="20.4590164" height="20.4784689" rx="2"></rect>
                        <ellipse id="home" cx="230.163934" cy="30.7177033" rx="10.2295082" ry="10.2392344"></ellipse>
                        <path d="M109.51864,19.2360349 C110.47258,18.6840427 111.245901,19.1361153 111.245901,20.2355053 L111.245902,39.9224285 C111.245902,41.026413 110.468611,41.4715938 109.518641,40.9218989 L92.5074041,31.0784369 C91.5534642,30.5264446 91.5574343,29.6291911 92.507404,29.0794962 L109.51864,19.2360349 Z" id="back"></path>
                    </g>
                    <g id="Alternatives" transform="translate(50.000000, 159.000000)" fill="#0F0F0F">
                        <g id="Inställningar" transform="translate(2.000000, 313.000000)">
                            <rect id="Rectangle-26" sketch:type="MSShapeGroup" x="65" y="12" width="221" height="35"></rect>
                            <text id="" sketch:type="MSTextLayer" font-family="FontAwesome" font-size="58" font-weight="normal" sketch:alignment="middle" line-spacing="51">
                                <tspan x="0.610491071" y="50"></tspan>
                            </text>
                        </g>
                        <g id="Mina-Företag" transform="translate(3.000000, 209.000000)">
                            <text id="" sketch:type="MSTextLayer" font-family="FontAwesome" font-size="59" font-weight="normal" sketch:alignment="middle" line-spacing="51">
                                <tspan x="0.395647321" y="51"></tspan>
                            </text>
                            <rect id="Rectangle-26" sketch:type="MSShapeGroup" x="64" y="13" width="142" height="35"></rect>
                        </g>
                        <g id="Skanna-Företag" transform="translate(0.000000, 105.000000)">
                            <rect id="Rectangle-26" sketch:type="MSShapeGroup" x="67" y="12" width="251" height="35"></rect>
                            <text id="" sketch:type="MSTextLayer" font-family="FontAwesome" font-size="63" font-weight="normal" sketch:alignment="middle" line-spacing="51">
                                <tspan x="0.71484375" y="53.9648438"></tspan>
                            </text>
                        </g>
                        <g id="Katalog" transform="translate(2.000000, 0.000000)">
                            <rect id="Rectangle-26" sketch:type="MSShapeGroup" x="65" y="12" width="193" height="35"></rect>
                            <text id="" sketch:type="MSTextLayer" font-family="FontAwesome" font-size="57" font-weight="normal" sketch:alignment="middle" line-spacing="51">
                                <tspan x="0.00390625" y="49"></tspan>
                            </text>
                        </g>
                    </g>
                    <g id="Header" transform="translate(0.000000, 29.000000)" sketch:type="MSShapeGroup">
                        <g id="Hamburger" transform="translate(19.000000, 19.000000)" stroke="#0F0F0F" stroke-width="6">
                            <path d="M1.86915771,23 L32.4633578,23" id="Path-16"></path>
                            <path d="M1.86915771,13 L32.4633578,13" id="Path-16"></path>
                            <path d="M1.86915771,3 L32.4633578,3" id="Path-16"></path>
                        </g>
                        <path d="M0.391416134,60 L461.999998,60" id="Divider" stroke="#0F0F0F" stroke-width="6"></path>
                        <path d="M0.391416134,2 L461.999998,2" id="Divider" stroke="#0F0F0F" stroke-width="6"></path>
                        <rect id="Rectangle-30" fill="#0F0F0F" x="115" y="20" width="113" height="21"></rect>
                        <rect id="Rectangle-30" fill="#0F0F0F" x="235" y="20" width="110" height="21"></rect>
                    </g>
                </g>
            </g>
        </g>
    </g>
</svg>