<svg version="1.0" id="Layer_1" xmlns="http://www.w3.org/2000/svg" xmlns:xlink="http://www.w3.org/1999/xlink" x="0px" y="0px" width="1444" height="960" viewBox="0 -50 1144.858 911.394" enable-background="new 0 0 1144.858 861.394" xml:space="preserve">
	<style>
		.image-box {
		  animation: move-image-borders 16s cubic-bezier(0.6, 0, 0.4, 0.99) infinite;
			backface-visibility: hidden;
			perspective: 1000;
		}
		.col1:nth-child(1) {
		  animation-delay: 1.33333333s;
		}
		.col2:nth-child(1) {
		  animation-delay: 0s;
		}
		.col3:nth-child(1) {
		  animation-delay: 2.66666667s;
		}
		.col4:nth-child(1) {
		  animation-delay: 4s;
		}
		.col1:nth-child(2) {
		  animation-delay: 6.66666667s;
		}
		.col2:nth-child(2) {
		  animation-delay: 5.33333333s;
		}
		.col3:nth-child(2) {
		  animation-delay: 8s;
		}
		.col4:nth-child(2) {
		  animation-delay: 9.33333333s;
		}
		.col1:nth-child(3) {
		  animation-delay: 12s;
		}
		.col2:nth-child(3) {
		  animation-delay: 10.66666667s;
		}
		.col3:nth-child(3) {
		  animation-delay: 13.33333333s;
		}
		.col4:nth-child(3) {
		  animation-delay: 14.66666667s;
		}
		@keyframes move-image-borders {
		  0% {
		    transform: translate(0, 0%);
		  }
		  8.33% {
		    transform: translate(0, 100%);
		  }
		  33.3% {
		    transform: translate(0, 100%);
		  }
		  41.66% {
		    transform: translate(0, 200%);
		  }
		  66.66% {
		    transform: translate(0, 200%);
		  }
		  75% {
		    transform: translate(0, 300%);
		  }
		  100% {
		    transform: translate(0, 300%);
		  }
		  /*0%   { opacity: 0; }
					  100% { opacity: 1; }*/
		}
	</style>
					<g>
						<line fill="none" stroke="#231F20" stroke-width="3" stroke-miterlimit="10" x1="288.965" y1="5" x2="288.965" y2="856.394"></line>
						<line fill="none" stroke="#231F20" stroke-width="3" stroke-miterlimit="10" x1="572.929" y1="5" x2="572.43" y2="856.394"></line>
						<line fill="none" stroke="#231F20" stroke-width="3" stroke-miterlimit="10" x1="855.896" y1="5" x2="855.896" y2="856.394"></line>
					</g>
					<g>
						<g class="image-box col1">
							<line fill="none" stroke="#231F20" stroke-width="3" stroke-miterlimit="10" x1="1134.626" y1="7.191" x2="855.771" y2="7.191"></line>
							<rect x="855.771" y="-275.178" fill="none" width="278.854" height="282.369"></rect>
						</g>
						<g class="image-box col1">
							<line fill="none" stroke="#231F20" stroke-width="3" stroke-miterlimit="10" x1="1134.626" y1="7.191" x2="855.771" y2="7.191"></line>
							<rect x="855.771" y="-275.178" fill="none" width="278.854" height="282.369"></rect>
						</g>
						<g class="image-box col1">
							<line fill="none" stroke="#231F20" stroke-width="3" stroke-miterlimit="10" x1="1134.626" y1="7.191" x2="855.771" y2="7.191"></line>
							<rect x="855.771" y="-275.178" fill="none" width="278.854" height="282.369"></rect>
						</g>
					</g>
					<g>
						<g class="image-box col2">
							<line fill="none" stroke="#231F20" stroke-width="3" stroke-miterlimit="10" x1="855.896" y1="7.287" x2="572.43" y2="7.287"></line>
							<rect x="572.43" y="-275.082" fill="none" width="283.466" height="282.369"></rect>
						</g>
						<g class="image-box col2">
							<line fill="none" stroke="#231F20" stroke-width="3" stroke-miterlimit="10" x1="855.896" y1="7.287" x2="572.43" y2="7.287"></line>
							<rect x="572.43" y="-275.082" fill="none" width="283.466" height="282.369"></rect>
						</g>
						<g class="image-box col2">
							<line fill="none" stroke="#231F20" stroke-width="3" stroke-miterlimit="10" x1="855.896" y1="7.287" x2="572.43" y2="7.287"></line>
							<rect x="572.43" y="-275.082" fill="none" width="283.466" height="282.369"></rect>
						</g>
					</g>
					<g>
						<g class="image-box col3">
							<line fill="none" stroke="#231F20" stroke-width="3" stroke-miterlimit="10" x1="572.43" y1="7.286" x2="288.964" y2="7.286"></line>
							<rect x="288.964" y="-275.083" fill="none" width="283.466" height="282.369"></rect>
						</g>
						<g class="image-box col3">
							<line fill="none" stroke="#231F20" stroke-width="3" stroke-miterlimit="10" x1="572.43" y1="7.286" x2="288.964" y2="7.286"></line>
							<rect x="288.964" y="-275.083" fill="none" width="283.466" height="282.369"></rect>
						</g>
						<g class="image-box col3">
							<line fill="none" stroke="#231F20" stroke-width="3" stroke-miterlimit="10" x1="572.43" y1="7.286" x2="288.964" y2="7.286"></line>
							<rect x="288.964" y="-275.083" fill="none" width="283.466" height="282.369"></rect>
						</g>
					</g>
					<g>
						<g class="image-box col4">
							<line fill="none" stroke="#231F20" stroke-width="3" stroke-miterlimit="10" x1="288.965" y1="7.286" x2="10.11" y2="7.286"></line>
							<rect x="10.11" y="-275.083" fill="none" width="278.854" height="282.369"></rect>
						</g>
						<g class="image-box col4">
							<line fill="none" stroke="#231F20" stroke-width="3" stroke-miterlimit="10" x1="288.965" y1="7.286" x2="10.11" y2="7.286"></line>
							<rect x="10.11" y="-275.083" fill="none" width="278.854" height="282.369"></rect>
						</g>
						<g class="image-box col4">
							<line fill="none" stroke="#231F20" stroke-width="3" stroke-miterlimit="10" x1="288.965" y1="7.286" x2="10.11" y2="7.286"></line>
							<rect x="10.11" y="-275.083" fill="none" width="278.854" height="282.369"></rect>
						</g>
					</g>
					<path fill="none" stroke="#231F20" stroke-width="10" stroke-miterlimit="10" d="M1139.858,832.576
						c0,13.155-10.153,23.817-22.678,23.817H27.677C15.153,856.394,5,845.731,5,832.576V-13.991c0-13.154,10.153-23.817,22.677-23.817
						h1089.503c12.524,0,22.678,10.664,22.678,23.817V832.576z"></path>
					<line fill="none" stroke="#231F20" stroke-width="10" stroke-miterlimit="10" x1="5.5" y1="7.287" x2="1139.858" y2="7.287"></line>

				</svg>
